<svg width="18" height="19" viewBox="0 0 18 19" fill="none" xmlns="http://www.w3.org/2000/svg">
  <path fill-rule="evenodd" clip-rule="evenodd" d="M15.1477 3.65059C15.1477 2.65647 14.3418 1.85059 13.3477 1.85059L4.64766 1.85059C3.65354 1.85059 2.84766 2.65647 2.84766 3.65059L2.84766 16.1006C2.84766 17.0947 3.65354 17.9006 4.64766 17.9006L13.3477 17.9006C14.3418 17.9006 15.1477 17.0947 15.1477 16.1006V3.65059ZM13.3477 3.65059L13.3477 16.1006L4.64766 16.1006L4.64766 3.65059L13.3477 3.65059ZM8.99995 3.31446C9.31123 3.31446 9.56358 3.06211 9.56358 2.75083C9.56358 2.43955 9.31123 2.18721 8.99995 2.18721C8.68867 2.18721 8.43633 2.43955 8.43633 2.75083C8.43633 3.06211 8.68867 3.31446 8.99995 3.31446Z" fill="black"/>
  <path fill-rule="evenodd" clip-rule="evenodd" d="M12.0039 1.99902V4.99902H6.00391V1.99902H7.70458C7.96394 1.55067 8.44869 1.24902 9.00391 1.24902C9.55912 1.24902 10.0439 1.55067 10.3032 1.99902H12.0039ZM9.00386 3.31231C9.31514 3.31231 9.56748 3.05996 9.56748 2.74868C9.56748 2.4374 9.31514 2.18506 9.00386 2.18506C8.69258 2.18506 8.44023 2.4374 8.44023 2.74868C8.44023 3.05996 8.69258 3.31231 9.00386 3.31231Z" fill="black"/>
  <path d="M12 8L8 11.75L6 9.875" stroke="black" stroke-width="1.8"/>
</svg>
