<svg width="903" height="262" viewBox="0 0 903 262" fill="none" xmlns="http://www.w3.org/2000/svg">
  <g clip-path="url(#clip0_1830_1436)">
    <path d="M868.022 223.385H861.187V255.897H842.226V165.493H873.193C882.228 165.493 888.885 168.227 893.343 172.803C897.801 177.38 899.999 183.859 899.999 191.467V196.935C899.999 202.403 898.87 206.564 896.79 209.714C894.71 212.864 891.738 215.123 887.994 216.787C890.905 218.333 892.926 220.294 894.234 222.909C895.542 225.525 896.195 228.913 896.849 233.132L898.335 242.583C898.632 245.139 899.286 247.754 899.999 250.131C900.713 252.509 901.545 254.53 902.318 255.897H882.763C882.584 255.66 882.406 255.184 882.109 254.293C881.574 252.628 880.861 250.31 880.207 247.695C879.909 246.387 879.613 245.079 879.434 243.831L877.711 233.905C876.462 226.713 872.361 223.147 868.022 223.325V223.385ZM881.039 195.806V192.953C881.039 189.446 880.207 186.474 878.424 184.334C876.64 182.195 873.907 180.887 870.102 180.887H861.246V207.812H870.221C874.085 207.812 876.878 206.564 878.602 204.424C880.267 202.344 881.039 199.372 881.039 195.806Z" fill="white"/>
    <path d="M831.927 255.897H780.395V165.493H831.927V181.006H799.355V202.344H825.924V217.857H799.355V240.503H831.927V255.897Z" fill="white"/>
    <path d="M733.66 255.897L726.944 208.229L726.171 198.184L725.458 208.229L718.801 255.897H692.589L678.681 165.493H698.116L705.665 227.665L706.497 239.017H707.151L707.864 227.665L716.542 165.493H735.859L744.537 227.784L745.191 238.958H745.845L746.796 227.605L754.404 165.434H773.721L759.872 255.897H733.66Z" fill="white"/>
    <path d="M613.758 221.007V200.858C613.758 190.575 615.601 181.184 620.356 174.408C625.111 167.751 632.778 163.591 644.606 163.591C656.434 163.591 664.161 167.751 668.916 174.408C673.671 181.184 675.573 190.575 675.573 200.858V220.532C675.573 230.934 673.671 240.265 668.916 246.922C664.161 253.639 656.375 257.799 644.665 257.799C632.838 257.799 625.111 253.639 620.356 246.982C615.601 240.384 613.758 231.23 613.758 221.067V221.007ZM644.665 242.345C648.945 242.345 651.917 240.681 653.819 237.59C655.661 234.559 656.434 230.101 656.434 224.574V197.114C656.434 191.705 655.661 187.188 653.819 184.037C651.917 180.887 649.005 179.104 644.725 179.104C640.327 179.104 637.355 180.887 635.512 184.037C633.669 187.188 632.897 191.705 632.897 197.114V224.693C632.897 230.339 633.669 234.619 635.512 237.65C637.355 240.681 640.327 242.345 644.725 242.345H644.665Z" fill="white"/>
    <path d="M607.56 227.902V233.132C607.56 241.037 604.826 246.744 600.19 250.489C595.554 254.233 588.956 255.956 581.348 255.956H550.738V165.493H583.369C589.253 165.493 594.721 167.395 598.585 170.783C602.508 174.171 604.885 179.223 604.885 185.464V190.813C604.885 195.271 604.113 199.075 602.389 202.047C600.665 205.019 598.05 207.158 594.662 207.872C597.99 208.585 601.2 210.606 603.578 213.934C605.955 217.322 607.501 222.018 607.501 227.902H607.56ZM586.281 191.467V188.436C586.281 182.67 583.131 179.817 577.9 179.817H569.282V201.274H578.435C583.488 201.274 586.281 197.886 586.281 191.407V191.467ZM588.481 229.091V226.238C588.481 219.343 584.973 215.836 579.565 215.836H569.282V240.384H578.495C581.348 240.384 583.844 239.908 585.627 238.244C587.411 236.58 588.481 233.727 588.481 229.15V229.091Z" fill="white"/>
    <path d="M541.865 231.052C541.865 240.265 539.25 246.922 534.316 251.32C529.383 255.719 522.191 257.858 513.394 257.858C503.646 257.858 496.098 254.411 490.987 248.824C485.875 243.237 483.141 235.629 483.141 227.07H501.566C501.744 230.161 501.982 233.965 503.528 236.996C505.073 240.087 507.926 242.345 513.454 242.345C517.02 242.345 519.397 241.276 520.764 239.374C522.191 237.531 522.726 234.975 522.726 232.063C522.726 229.15 522.369 226.713 521.181 224.752C519.932 222.791 517.852 221.305 514.524 219.938L500.853 214.41C494.671 211.854 490.392 208.704 487.718 204.603C485.043 200.561 483.854 195.568 483.854 189.387C483.854 181.838 485.696 175.359 490.214 170.783C494.671 166.266 501.685 163.591 511.968 163.591C522.666 163.591 529.918 166.979 534.495 172.506C539.072 178.034 540.914 185.761 540.914 194.379H522.488C522.31 190.159 521.775 186.355 520.289 183.562C518.803 180.768 516.247 179.104 512.205 179.104C508.164 179.104 505.846 180.352 504.479 182.195C503.111 184.097 502.815 186.593 502.815 189.149C502.815 194.736 504.657 198.005 510.066 200.085L523.736 205.613C529.502 207.991 534.079 210.844 537.17 214.826C540.2 218.927 541.806 224.098 541.806 231.052H541.865Z" fill="white"/>
    <path d="M474.624 255.897H456.971L457.506 201.215L458.279 191.229L444.014 242.524H425.707L411.323 190.991L412.155 201.274L412.75 255.897H395.097V165.493H418.693L433.791 218.689L434.861 224.99H434.92L436.049 218.63L451.146 165.493H474.684L474.624 255.897Z" fill="white"/>
    <path d="M386.224 231.052C386.224 240.265 383.609 246.922 378.676 251.32C373.742 255.719 366.55 257.858 357.754 257.858C348.006 257.858 340.457 254.411 335.346 248.824C330.234 243.237 327.5 235.629 327.5 227.07H345.926C346.104 230.161 346.342 233.965 347.887 236.996C349.432 240.087 352.285 242.345 357.813 242.345C361.379 242.345 363.757 241.276 365.124 239.374C366.55 237.531 367.085 234.975 367.085 232.063C367.085 229.15 366.729 226.713 365.54 224.752C364.292 222.791 362.212 221.305 358.883 219.938L345.212 214.41C339.031 211.854 334.751 208.704 332.077 204.603C329.402 200.561 328.213 195.568 328.213 189.387C328.213 181.838 330.056 175.359 334.573 170.783C339.031 166.266 346.045 163.591 356.327 163.591C367.026 163.591 374.277 166.979 378.854 172.506C383.431 178.034 385.273 185.761 385.273 194.379H366.848C366.669 190.159 366.134 186.355 364.648 183.562C363.162 180.768 360.607 179.104 356.565 179.104C352.523 179.104 350.205 180.352 348.838 182.195C347.471 184.097 347.174 186.593 347.174 189.149C347.174 194.736 349.016 198.005 354.425 200.085L368.096 205.613C373.861 207.991 378.438 210.844 381.529 214.826C384.56 218.927 386.165 224.098 386.165 231.052H386.224Z" fill="white"/>
  </g>
  <g clip-path="url(#clip1_1830_1436)">
    <path d="M374.5 70.5H410L429.5 90.5V136.5H374.5V70.5Z" fill="#06593A"/>
    <path d="M0.5 0.5H157.5L222.5 70.5L260 31.5H336.5L374.5 70.5H338.5L148.5 261.5V181.5L204.5 125.5L186.5 107H106L0.5 0.5Z" fill="#06593A"/>
    <path d="M396.5 95.5H385.5V105.5H396.5V95.5Z" stroke="#063423"/>
    <path d="M407.5 95.5H396.5V105.5H407.5V95.5Z" stroke="#063423"/>
    <path d="M418.5 95.5H407.5V105.5H418.5V95.5Z" stroke="#063423"/>
    <path d="M396.5 105.5H385.5V115.5H396.5V105.5Z" stroke="#063423"/>
    <path d="M396.5 115.5H385.5V125.5H396.5V115.5Z" stroke="#063423"/>
    <path d="M407.5 105.5H396.5V115.5H407.5V105.5Z" stroke="#063423"/>
    <path d="M407.5 115.5H396.5V125.5H407.5V115.5Z" stroke="#063423"/>
    <path d="M418.5 105.5H407.5V115.5H418.5V105.5Z" stroke="#063423"/>
    <path d="M418.5 115.5H407.5V125.5H418.5V115.5Z" stroke="#063423"/>
    <path d="M396.5 95.5H385.5V105.5H396.5V95.5Z" fill="#EF8512" stroke="#063423"/>
    <path d="M407.5 95.5H396.5V105.5H407.5V95.5Z" fill="#EF8512" stroke="#063423"/>
    <path d="M407.5 105.5H396.5V115.5H407.5V105.5Z" fill="#EF8512" stroke="#063423"/>
    <path d="M407.5 115.5H396.5V125.5H407.5V115.5Z" fill="#EF8512" stroke="#063423"/>
    <path d="M259.869 31.5H336.5L374.5 70.5H338.5L148.5 261.5L259.869 31.5Z" fill="#EF8512"/>
    <path d="M314.5 46.5H303.5V57.5H314.5V46.5Z" fill="#06593A"/>
  </g>
  <defs>
    <clipPath id="clip0_1830_1436">
      <rect width="575.206" height="95" fill="white" transform="translate(327.5 163.5)"/>
    </clipPath>
    <clipPath id="clip1_1830_1436">
      <rect width="429" height="261" fill="white" transform="translate(0.5 0.5)"/>
    </clipPath>
  </defs>
</svg>
