<svg width="162" height="160" viewBox="0 0 162 160" fill="none" xmlns="http://www.w3.org/2000/svg">
    <g clip-path="url(#clip0_745_15128)">
        <path d="M29.2645 143.484C45.4269 143.484 58.529 130.544 58.529 114.581C58.529 98.6181 45.4269 85.6777 29.2645 85.6777C13.1022 85.6777 0 98.6181 0 114.581C0 130.544 13.1022 143.484 29.2645 143.484Z" fill="#F1DC1F" fill-opacity="0.28" />
        <path d="M126.779 49.5484C140.633 49.5484 151.863 38.4566 151.863 24.7742C151.863 11.0918 140.633 0 126.779 0C112.926 0 101.695 11.0918 101.695 24.7742C101.695 38.4566 112.926 49.5484 126.779 49.5484Z" fill="#F1DC1F" fill-opacity="0.28" />
        <path d="M120.193 160.001C143.282 160.001 162 141.514 162 118.71C162 95.9062 143.282 77.4199 120.193 77.4199C97.1041 77.4199 78.3867 95.9062 78.3867 118.71C78.3867 141.514 97.1041 160.001 120.193 160.001Z" fill="#F1DC1F" fill-opacity="0.28" />
        <path d="M79.9528 142.967C116.895 142.967 146.843 113.389 146.843 76.9024C146.843 40.416 116.895 10.8379 79.9528 10.8379C43.0103 10.8379 13.0625 40.416 13.0625 76.9024C13.0625 113.389 43.0103 142.967 79.9528 142.967Z" fill="#AEA700" />
        <path d="M129.747 32.8047C129.998 35.0757 130.123 37.3879 130.123 39.7415C130.123 76.2215 100.169 105.806 63.2329 105.806C43.4584 105.806 25.6907 97.3208 13.4414 83.8395C16.9531 117.058 45.3815 142.967 79.9555 142.967C116.891 142.967 146.846 113.383 146.846 76.9028C146.846 59.9531 140.387 44.5105 129.747 32.8047Z" fill="#D9C61E" />
        <path d="M79.9542 144.516C42.2029 144.516 11.4961 114.188 11.4961 76.9029C11.4961 39.6178 42.2029 9.29004 79.9542 9.29004C117.705 9.29004 148.412 39.6178 148.412 76.9029C148.412 114.188 117.705 144.516 79.9542 144.516ZM79.9542 12.3868C43.9379 12.3868 14.6316 41.3313 14.6316 76.9029C14.6316 112.475 43.9379 141.419 79.9542 141.419C115.97 141.419 145.277 112.475 145.277 76.9029C145.277 41.3313 115.97 12.3868 79.9542 12.3868Z" fill="#FFE600" />
        <path d="M131.169 83.0967H26.6528C25.4984 83.0967 24.5625 84.021 24.5625 85.1612V130.581C24.5625 131.721 25.4984 132.645 26.6528 132.645H131.169C132.323 132.645 133.259 131.721 133.259 130.581V85.1612C133.259 84.021 132.323 83.0967 131.169 83.0967Z" fill="#D9C61E" />
        <path d="M26.6528 83.0967H124.898V112C124.898 118.833 119.275 124.387 112.356 124.387H24.5625V85.1612C24.5625 84.0257 25.5031 83.0967 26.6528 83.0967Z" fill="#AEA700" />
        <path d="M131.166 134.193H26.6503C24.6435 134.193 22.9922 132.562 22.9922 130.58V85.1608C22.9922 83.1788 24.6435 81.5479 26.6503 81.5479H131.166C133.173 81.5479 134.824 83.1788 134.824 85.1608V130.58C134.824 132.562 133.173 134.193 131.166 134.193ZM26.6503 84.6446C26.3576 84.6446 26.1277 84.8717 26.1277 85.1608V130.58C26.1277 130.869 26.3576 131.096 26.6503 131.096H131.166C131.459 131.096 131.689 130.869 131.689 130.58V85.1608C131.689 84.8717 131.459 84.6446 131.166 84.6446H26.6503Z" fill="#FFE600" />
        <path d="M124.895 93.4191C126.049 93.4191 126.985 92.4948 126.985 91.3546C126.985 90.2144 126.049 89.29 124.895 89.29C123.741 89.29 122.805 90.2144 122.805 91.3546C122.805 92.4948 123.741 93.4191 124.895 93.4191Z" fill="#FFE600" />
        <path d="M124.895 126.451C126.049 126.451 126.985 125.527 126.985 124.387C126.985 123.247 126.049 122.322 124.895 122.322C123.741 122.322 122.805 123.247 122.805 124.387C122.805 125.527 123.741 126.451 124.895 126.451Z" fill="#FFE600" />
        <path d="M32.9224 93.4191C34.0768 93.4191 35.0127 92.4948 35.0127 91.3546C35.0127 90.2144 34.0768 89.29 32.9224 89.29C31.7679 89.29 30.832 90.2144 30.832 91.3546C30.832 92.4948 31.7679 93.4191 32.9224 93.4191Z" fill="#FFE600" />
        <path d="M32.9224 126.451C34.0768 126.451 35.0127 125.527 35.0127 124.387C35.0127 123.247 34.0768 122.322 32.9224 122.322C31.7679 122.322 30.832 123.247 30.832 124.387C30.832 125.527 31.7679 126.451 32.9224 126.451Z" fill="#FFE600" />
        <path d="M112.355 113.032C115.241 113.032 117.581 110.721 117.581 107.87C117.581 105.02 115.241 102.709 112.355 102.709C109.469 102.709 107.129 105.02 107.129 107.87C107.129 110.721 109.469 113.032 112.355 113.032Z" fill="#AEA700" />
        <path d="M115.49 103.762C115.49 106.611 113.149 108.902 110.264 108.902C109.094 108.902 108.007 108.51 107.129 107.849C107.129 107.849 107.129 107.849 107.129 107.87C107.129 110.719 109.47 113.031 112.355 113.031C115.239 113.031 117.581 110.719 117.581 107.87C117.581 106.177 116.744 104.711 115.49 103.762Z" fill="#D9C61E" />
        <path d="M112.356 114.58C108.614 114.58 105.562 111.566 105.562 107.871C105.562 104.175 108.614 101.161 112.356 101.161C116.098 101.161 119.15 104.175 119.15 107.871C119.15 111.566 116.098 114.58 112.356 114.58ZM112.356 104.258C110.349 104.258 108.698 105.889 108.698 107.871C108.698 109.853 110.349 111.484 112.356 111.484C114.363 111.484 116.014 109.853 116.014 107.871C116.014 105.889 114.363 104.258 112.356 104.258Z" fill="#FFE600" />
        <path d="M45.4641 113.032C48.3502 113.032 50.6899 110.721 50.6899 107.87C50.6899 105.02 48.3502 102.709 45.4641 102.709C42.578 102.709 40.2383 105.02 40.2383 107.87C40.2383 110.721 42.578 113.032 45.4641 113.032Z" fill="#AEA700" />
        <path d="M48.5996 103.762C48.5996 106.611 46.2584 108.902 43.3738 108.902C42.2032 108.902 41.1162 108.51 40.2383 107.849C40.2383 107.849 40.2383 107.849 40.2383 107.87C40.2383 110.719 42.5794 113.031 45.4641 113.031C48.3487 113.031 50.6899 110.719 50.6899 107.87C50.6899 106.177 49.8538 104.711 48.5996 103.762Z" fill="#D9C61E" />
        <path d="M45.4654 114.58C41.7237 114.58 38.6719 111.566 38.6719 107.871C38.6719 104.175 41.7237 101.161 45.4654 101.161C49.2071 101.161 52.259 104.175 52.259 107.871C52.259 111.566 49.2071 114.58 45.4654 114.58ZM45.4654 104.258C43.4587 104.258 41.8074 105.889 41.8074 107.871C41.8074 109.853 43.4587 111.484 45.4654 111.484C47.4721 111.484 49.1235 109.853 49.1235 107.871C49.1235 105.889 47.4721 104.258 45.4654 104.258Z" fill="#FFE600" />
        <path d="M78.9084 125.419C88.7212 125.419 96.6761 117.562 96.6761 107.871C96.6761 98.1789 88.7212 90.3223 78.9084 90.3223C69.0955 90.3223 61.1406 98.1789 61.1406 107.871C61.1406 117.562 69.0955 125.419 78.9084 125.419Z" fill="#AEA700" />
        <path d="M92.1625 96.2061C92.3715 97.3002 92.4969 98.4564 92.4969 99.6125C92.4969 109.316 84.5328 117.161 74.7292 117.161C69.4616 117.161 64.7375 114.89 61.4766 111.277C63.0861 119.329 70.2768 125.419 78.9099 125.419C88.7135 125.419 96.6776 117.553 96.6776 107.871C96.6776 103.391 94.9635 99.3028 92.1625 96.2061Z" fill="#D9C61E" />
        <path d="M78.9097 126.967C68.2491 126.967 59.5742 118.399 59.5742 107.87C59.5742 97.3412 68.2491 88.7734 78.9097 88.7734C89.5703 88.7734 98.2452 97.3412 98.2452 107.87C98.2452 118.399 89.5703 126.967 78.9097 126.967ZM78.9097 91.8702C69.984 91.8702 62.7097 99.0547 62.7097 107.87C62.7097 116.686 69.984 123.87 78.9097 123.87C87.8354 123.87 95.1097 116.686 95.1097 107.87C95.1097 99.0547 87.8354 91.8702 78.9097 91.8702Z" fill="#FFE600" />
        <path d="M78.9099 118.317C76.1925 118.317 73.8095 116.831 72.8271 114.498C72.4926 113.713 72.8689 112.805 73.6632 112.474C74.4575 112.144 75.3773 112.516 75.7117 113.3C76.1925 114.436 77.4885 115.22 78.9099 115.22C80.7912 115.22 82.2962 113.92 82.2962 112.309C82.2962 110.389 81.1465 109.398 78.889 109.398C74.0813 109.398 72.3672 106.302 72.3672 103.391C72.3672 100.087 75.2936 97.3828 78.889 97.3828C81.6064 97.3828 83.9894 98.8693 84.9718 101.202C85.3063 101.987 84.93 102.895 84.1357 103.225C83.3414 103.556 82.4216 103.184 82.0872 102.4C81.6064 101.264 80.3104 100.48 78.889 100.48C77.0077 100.48 75.5027 101.78 75.5027 103.391C75.5027 105.352 76.6105 106.302 78.889 106.302C82.8606 106.302 85.4317 108.655 85.4317 112.309C85.4317 115.612 82.5053 118.317 78.9099 118.317Z" fill="#FFE600" />
        <path d="M78.9076 100.521C78.0506 100.521 77.3398 99.8194 77.3398 98.9729V96.5162C77.3398 95.6697 78.0506 94.9678 78.9076 94.9678C79.7646 94.9678 80.4753 95.6697 80.4753 96.5162V98.9729C80.4753 99.8194 79.7646 100.521 78.9076 100.521Z" fill="#FFE600" />
        <path d="M78.9076 120.774C78.0506 120.774 77.3398 120.072 77.3398 119.226V116.769C77.3398 115.923 78.0506 115.221 78.9076 115.221C79.7646 115.221 80.4753 115.923 80.4753 116.769V119.226C80.4753 120.072 79.7646 120.774 78.9076 120.774Z" fill="#FFE600" />
        <path d="M124.895 23.2256H62.1855C57.5677 23.2256 53.8242 26.9228 53.8242 31.4837V64.5159C53.8242 69.0767 57.5677 72.774 62.1855 72.774H124.895C129.513 72.774 133.256 69.0767 133.256 64.5159V31.4837C133.256 26.9228 129.513 23.2256 124.895 23.2256Z" fill="#D9C61E" />
        <path d="M62.1855 23.2256H120.715V29.4191C120.715 47.6488 105.727 62.4514 87.2694 62.4514H53.8242V31.4837C53.8242 26.9211 57.5659 23.2256 62.1855 23.2256Z" fill="#AEA700" />
        <path d="M124.897 74.3229H62.1868C56.7102 74.3229 52.2578 69.9255 52.2578 64.5164V31.4842C52.2578 26.0752 56.7102 21.6777 62.1868 21.6777H124.897C130.373 21.6777 134.826 26.0752 134.826 31.4842V64.5164C134.826 69.9255 130.373 74.3229 124.897 74.3229ZM62.1868 24.7745C58.4452 24.7745 55.3933 27.7887 55.3933 31.4842V64.5164C55.3933 68.2119 58.4452 71.2261 62.1868 71.2261H124.897C128.638 71.2261 131.69 68.2119 131.69 64.5164V31.4842C131.69 27.7887 128.638 24.7745 124.897 24.7745H62.1868Z" fill="#FFE600" />
        <path d="M74.7294 31.4834H64.2778C63.1234 31.4834 62.1875 32.4077 62.1875 33.5479V39.7415C62.1875 40.8817 63.1234 41.806 64.2778 41.806H74.7294C75.8839 41.806 76.8198 40.8817 76.8198 39.7415V33.5479C76.8198 32.4077 75.8839 31.4834 74.7294 31.4834Z" fill="#D9C61E" />
        <path d="M64.2778 31.4834H72.6391V35.6124C72.6391 36.7479 71.6985 37.6769 70.5488 37.6769H62.1875V33.5479C62.1875 32.4124 63.1281 31.4834 64.2778 31.4834Z" fill="#AEA700" />
        <path d="M74.7269 43.3549H64.2753C62.2685 43.3549 60.6172 41.7239 60.6172 39.742V33.5484C60.6172 31.5665 62.2685 29.9355 64.2753 29.9355H74.7269C76.7336 29.9355 78.3849 31.5665 78.3849 33.5484V39.742C78.3849 41.7239 76.7336 43.3549 74.7269 43.3549ZM64.2753 33.0323C63.9826 33.0323 63.7527 33.2594 63.7527 33.5484V39.742C63.7527 40.031 63.9826 40.2581 64.2753 40.2581H74.7269C75.0195 40.2581 75.2494 40.031 75.2494 39.742V33.5484C75.2494 33.2594 75.0195 33.0323 74.7269 33.0323H64.2753Z" fill="#FFE600" />
        <path d="M110.263 63.9991H86.392C85.5349 63.9991 84.8242 63.2972 84.8242 62.4507C84.8242 61.6043 85.5349 60.9023 86.392 60.9023H110.263C111.12 60.9023 111.831 61.6043 111.831 62.4507C111.831 63.2972 111.12 63.9991 110.263 63.9991Z" fill="#FFE600" />
        <path d="M78.0296 63.9991H62.1849C61.3279 63.9991 60.6172 63.2972 60.6172 62.4507C60.6172 61.6043 61.3279 60.9023 62.1849 60.9023H78.0296C78.8866 60.9023 79.5973 61.6043 79.5973 62.4507C79.5973 63.2972 78.8866 63.9991 78.0296 63.9991Z" fill="#FFE600" />
        <path d="M71.4479 53.6769H62.5013C61.6443 53.6769 60.9336 52.9749 60.9336 52.1285C60.9336 51.282 61.6443 50.5801 62.5013 50.5801H71.4479C72.305 50.5801 73.0157 51.282 73.0157 52.1285C73.0157 52.9749 72.305 53.6769 71.4479 53.6769Z" fill="#FFE600" />
        <path d="M89.3829 53.6769H80.4154C79.5584 53.6769 78.8477 52.9749 78.8477 52.1285C78.8477 51.282 79.5584 50.5801 80.4154 50.5801H89.3829C90.2399 50.5801 90.9506 51.282 90.9506 52.1285C90.9506 52.9749 90.2399 53.6769 89.3829 53.6769Z" fill="#FFE600" />
        <path d="M107.297 53.6769H98.3295C97.4724 53.6769 96.7617 52.9749 96.7617 52.1285C96.7617 51.282 97.4724 50.5801 98.3295 50.5801H107.297C108.154 50.5801 108.865 51.282 108.865 52.1285C108.865 52.9749 108.154 53.6769 107.297 53.6769Z" fill="#FFE600" />
        <path d="M125.211 53.6769H116.244C115.386 53.6769 114.676 52.9749 114.676 52.1285C114.676 51.282 115.386 50.5801 116.244 50.5801H125.211C126.068 50.5801 126.779 51.282 126.779 52.1285C126.779 52.9749 126.068 53.6769 125.211 53.6769Z" fill="#FFE600" />
        <path d="M111.308 41.806C114.194 41.806 116.534 39.4952 116.534 36.6447C116.534 33.7942 114.194 31.4834 111.308 31.4834C108.422 31.4834 106.082 33.7942 106.082 36.6447C106.082 39.4952 108.422 41.806 111.308 41.806Z" fill="#AEA700" />
        <path d="M111.309 43.3549C107.567 43.3549 104.516 40.3407 104.516 36.6452C104.516 32.9497 107.567 29.9355 111.309 29.9355C115.051 29.9355 118.103 32.9497 118.103 36.6452C118.103 40.3407 115.051 43.3549 111.309 43.3549ZM111.309 33.0323C109.302 33.0323 107.651 34.6633 107.651 36.6452C107.651 38.6272 109.302 40.2581 111.309 40.2581C113.316 40.2581 114.967 38.6272 114.967 36.6452C114.967 34.6633 113.316 33.0323 111.309 33.0323Z" fill="#FFE600" />
        <path d="M119.671 41.806C122.557 41.806 124.897 39.4952 124.897 36.6447C124.897 33.7942 122.557 31.4834 119.671 31.4834C116.785 31.4834 114.445 33.7942 114.445 36.6447C114.445 39.4952 116.785 41.806 119.671 41.806Z" fill="#AEA700" />
        <path d="M119.669 43.3549C115.927 43.3549 112.875 40.3407 112.875 36.6452C112.875 32.9497 115.927 29.9355 119.669 29.9355C123.41 29.9355 126.462 32.9497 126.462 36.6452C126.462 40.3407 123.41 43.3549 119.669 43.3549ZM119.669 33.0323C117.662 33.0323 116.01 34.6633 116.01 36.6452C116.01 38.6272 117.662 40.2581 119.669 40.2581C121.675 40.2581 123.327 38.6272 123.327 36.6452C123.327 34.6633 121.675 33.0323 119.669 33.0323Z" fill="#FFE600" />
        <path d="M32.9212 70.1935H24.5599C23.7029 70.1935 22.9922 69.4915 22.9922 68.6451C22.9922 67.7986 23.7029 67.0967 24.5599 67.0967H32.9212C33.7783 67.0967 34.489 67.7986 34.489 68.6451C34.489 69.4915 33.7783 70.1935 32.9212 70.1935Z" fill="#FFE600" />
        <path d="M28.7396 74.3226C27.8826 74.3226 27.1719 73.6207 27.1719 72.7742V64.5162C27.1719 63.6697 27.8826 62.9678 28.7396 62.9678C29.5966 62.9678 30.3074 63.6697 30.3074 64.5162V72.7742C30.3074 73.6207 29.5966 74.3226 28.7396 74.3226Z" fill="#FFE600" />
        <path d="M43.3743 45.419H35.0131C34.156 45.419 33.4453 44.7171 33.4453 43.8707C33.4453 43.0242 34.156 42.3223 35.0131 42.3223H43.3743C44.2314 42.3223 44.9421 43.0242 44.9421 43.8707C44.9421 44.7171 44.2314 45.419 43.3743 45.419Z" fill="#FFE600" />
        <path d="M39.1927 49.5482C38.3357 49.5482 37.625 48.8463 37.625 47.9998V39.7417C37.625 38.8953 38.3357 38.1934 39.1927 38.1934C40.0498 38.1934 40.7605 38.8953 40.7605 39.7417V47.9998C40.7605 48.8463 40.0498 49.5482 39.1927 49.5482Z" fill="#FFE600" />
        <path d="M21.4251 26.838H13.0638C12.2068 26.838 11.4961 26.136 11.4961 25.2896C11.4961 24.4431 12.2068 23.7412 13.0638 23.7412H21.4251C22.2822 23.7412 22.9929 24.4431 22.9929 25.2896C22.9929 26.136 22.2822 26.838 21.4251 26.838Z" fill="#FFE600" />
        <path d="M17.2435 30.9671C16.3865 30.9671 15.6758 30.2652 15.6758 29.4188V21.1607C15.6758 20.3142 16.3865 19.6123 17.2435 19.6123C18.1006 19.6123 18.8113 20.3142 18.8113 21.1607V29.4188C18.8113 30.2652 18.1006 30.9671 17.2435 30.9671Z" fill="#FFE600" />
        <path d="M142.663 16.5157H134.302C133.445 16.5157 132.734 15.8138 132.734 14.9673C132.734 14.1209 133.445 13.4189 134.302 13.4189H142.663C143.52 13.4189 144.231 14.1209 144.231 14.9673C144.231 15.8138 143.52 16.5157 142.663 16.5157Z" fill="#FFE600" />
        <path d="M138.482 20.6449C137.625 20.6449 136.914 19.9429 136.914 19.0965V10.8384C136.914 9.99197 137.625 9.29004 138.482 9.29004C139.339 9.29004 140.05 9.99197 140.05 10.8384V19.0965C140.05 19.9429 139.339 20.6449 138.482 20.6449Z" fill="#FFE600" />
        <path d="M146.843 140.387H138.482C137.625 140.387 136.914 139.685 136.914 138.838C136.914 137.992 137.625 137.29 138.482 137.29H146.843C147.7 137.29 148.411 137.992 148.411 138.838C148.411 139.685 147.7 140.387 146.843 140.387Z" fill="#FFE600" />
        <path d="M142.661 144.516C141.804 144.516 141.094 143.814 141.094 142.968V134.71C141.094 133.863 141.804 133.161 142.661 133.161C143.519 133.161 144.229 133.863 144.229 134.71V142.968C144.229 143.814 143.519 144.516 142.661 144.516Z" fill="#FFE600" />
    </g>
    <defs>
        <clipPath id="clip0_745_15128">
            <rect width="162" height="160" fill="white" />
        </clipPath>
    </defs>
</svg>