<svg width="150" height="156" viewBox="0 0 150 156" fill="none" xmlns="http://www.w3.org/2000/svg">
    <g clip-path="url(#clip0_745_15487)">
        <path d="M122.523 98.1133C137.698 98.1133 149.999 85.8138 149.999 70.6416C149.999 55.4694 137.698 43.1699 122.523 43.1699C107.348 43.1699 95.0469 55.4694 95.0469 70.6416C95.0469 85.8138 107.348 98.1133 122.523 98.1133Z" fill="#00FF93" fill-opacity="0.2" />
        <path d="M63.5275 47.0943C76.5344 47.0943 87.0785 36.5519 87.0785 23.5472C87.0785 10.5424 76.5344 0 63.5275 0C50.5207 0 39.9766 10.5424 39.9766 23.5472C39.9766 36.5519 50.5207 47.0943 63.5275 47.0943Z" fill="#00FF93" fill-opacity="0.2" />
        <path d="M39.2516 156C60.9297 156 78.5032 138.43 78.5032 116.755C78.5032 95.0805 60.9297 77.5098 39.2516 77.5098C17.5735 77.5098 0 95.0805 0 116.755C0 138.43 17.5735 156 39.2516 156Z" fill="#00FF93" fill-opacity="0.2" />
        <path d="M16.6797 77.5098H130.509V132.453C130.509 136.79 126.996 140.302 122.659 140.302H24.53C20.1927 140.302 16.6797 136.79 16.6797 132.453V77.5098Z" fill="#06CE7A" />
        <path d="M16.6797 77.5098H124.622V126.566C124.622 130.903 121.109 134.415 116.771 134.415H24.53C20.1927 134.415 16.6797 130.903 16.6797 126.566V77.5098Z" fill="#00AA61" />
        <path d="M122.658 141.773H24.5293C19.3873 141.773 15.207 137.593 15.207 132.452V77.5088C15.207 76.7043 15.8743 76.0371 16.679 76.0371H130.509C131.313 76.0371 131.981 76.7043 131.981 77.5088V132.452C131.981 137.593 127.8 141.773 122.658 141.773ZM18.1509 78.9805V132.452C18.1509 135.965 21.0163 138.83 24.5293 138.83H122.658C126.171 138.83 129.037 135.965 129.037 132.452V78.9805H18.1509Z" fill="#00FF93" />
        <path d="M134.436 61.8105H12.7555C11.6716 61.8105 10.793 62.6891 10.793 63.7728V75.5464C10.793 76.6301 11.6716 77.5087 12.7555 77.5087H134.436C135.519 77.5087 136.398 76.6301 136.398 75.5464V63.7728C136.398 62.6891 135.519 61.8105 134.436 61.8105Z" fill="#06CE7A" />
        <path d="M12.7555 61.8105H130.51V69.6596C130.51 70.7388 129.627 71.6219 128.548 71.6219H10.793V63.7728C10.793 62.6936 11.6761 61.8105 12.7555 61.8105Z" fill="#00AA61" />
        <path d="M134.435 78.9814H12.7548C10.8708 78.9814 9.32031 77.4312 9.32031 75.5474V63.7738C9.32031 61.89 10.8708 60.3398 12.7548 60.3398H134.435C136.319 60.3398 137.869 61.89 137.869 63.7738V75.5474C137.869 77.4312 136.319 78.9814 134.435 78.9814ZM12.7548 63.2832C12.4801 63.2832 12.2642 63.4991 12.2642 63.7738V75.5474C12.2642 75.8221 12.4801 76.038 12.7548 76.038H134.435C134.71 76.038 134.925 75.8221 134.925 75.5474V63.7738C134.925 63.4991 134.71 63.2832 134.435 63.2832H12.7548Z" fill="#00FF93" />
        <path d="M115.791 113.812H107.941C105.773 113.812 104.016 115.569 104.016 117.736V125.585C104.016 127.753 105.773 129.51 107.941 129.51H115.791C117.959 129.51 119.716 127.753 119.716 125.585V117.736C119.716 115.569 117.959 113.812 115.791 113.812Z" fill="#06CE7A" />
        <path d="M107.941 113.812H113.829V121.661C113.829 122.74 112.945 123.623 111.866 123.623H104.016V117.736C104.016 115.578 105.782 113.812 107.941 113.812Z" fill="#00AA61" />
        <path d="M115.79 130.981H107.94C104.957 130.981 102.543 128.568 102.543 125.585V117.736C102.543 114.753 104.957 112.34 107.94 112.34H115.79C118.774 112.34 121.187 114.753 121.187 117.736V125.585C121.187 128.568 118.774 130.981 115.79 130.981ZM107.94 115.283C106.586 115.283 105.487 116.382 105.487 117.736V125.585C105.487 126.939 106.586 128.038 107.94 128.038H115.79C117.145 128.038 118.244 126.939 118.244 125.585V117.736C118.244 116.382 117.145 115.283 115.79 115.283H107.94Z" fill="#00FF93" />
        <path d="M115.791 88.3018H107.941C105.773 88.3018 104.016 90.0588 104.016 92.2263V100.075C104.016 102.243 105.773 104 107.941 104H115.791C117.959 104 119.716 102.243 119.716 100.075V92.2263C119.716 90.0588 117.959 88.3018 115.791 88.3018Z" fill="#06CE7A" />
        <path d="M107.941 88.3018H113.829V96.1508C113.829 97.2301 112.945 98.1131 111.866 98.1131H104.016V92.2263C104.016 90.0678 105.782 88.3018 107.941 88.3018Z" fill="#00AA61" />
        <path d="M115.79 105.472H107.94C104.957 105.472 102.543 103.058 102.543 100.075V92.2263C102.543 89.2437 104.957 86.8301 107.94 86.8301H115.79C118.774 86.8301 121.187 89.2437 121.187 92.2263V100.075C121.187 103.058 118.774 105.472 115.79 105.472ZM107.94 89.7735C106.586 89.7735 105.487 90.8723 105.487 92.2263V100.075C105.487 101.429 106.586 102.528 107.94 102.528H115.79C117.145 102.528 118.244 101.429 118.244 100.075V92.2263C118.244 90.8723 117.145 89.7735 115.79 89.7735H107.94Z" fill="#00FF93" />
        <path d="M90.2755 113.812H82.4252C80.2574 113.812 78.5 115.569 78.5 117.736V125.585C78.5 127.753 80.2574 129.51 82.4252 129.51H90.2755C92.4433 129.51 94.2006 127.753 94.2006 125.585V117.736C94.2006 115.569 92.4433 113.812 90.2755 113.812Z" fill="#06CE7A" />
        <path d="M82.4252 113.812H88.3129V121.661C88.3129 122.74 87.4297 123.623 86.3503 123.623H78.5V117.736C78.5 115.578 80.2663 113.812 82.4252 113.812Z" fill="#00AA61" />
        <path d="M90.2787 130.981H82.4283C79.4452 130.981 77.0312 128.568 77.0312 125.585V117.736C77.0312 114.753 79.4452 112.34 82.4283 112.34H90.2787C93.2618 112.34 95.6758 114.753 95.6758 117.736V125.585C95.6758 128.568 93.2618 130.981 90.2787 130.981ZM82.4283 115.283C81.0742 115.283 79.9751 116.382 79.9751 117.736V125.585C79.9751 126.939 81.0742 128.038 82.4283 128.038H90.2787C91.6328 128.038 92.7319 126.939 92.7319 125.585V117.736C92.7319 116.382 91.6328 115.283 90.2787 115.283H82.4283Z" fill="#00FF93" />
        <path d="M90.2755 88.3018H82.4252C80.2574 88.3018 78.5 90.0588 78.5 92.2263V100.075C78.5 102.243 80.2574 104 82.4252 104H90.2755C92.4433 104 94.2006 102.243 94.2006 100.075V92.2263C94.2006 90.0588 92.4433 88.3018 90.2755 88.3018Z" fill="#06CE7A" />
        <path d="M82.4252 88.3018H88.3129V96.1508C88.3129 97.2301 87.4297 98.1131 86.3503 98.1131H78.5V92.2263C78.5 90.0678 80.2663 88.3018 82.4252 88.3018Z" fill="#00AA61" />
        <path d="M90.2787 105.472H82.4283C79.4452 105.472 77.0312 103.058 77.0312 100.075V92.2263C77.0312 89.2437 79.4452 86.8301 82.4283 86.8301H90.2787C93.2618 86.8301 95.6758 89.2437 95.6758 92.2263V100.075C95.6758 103.058 93.2618 105.472 90.2787 105.472ZM82.4283 89.7735C81.0742 89.7735 79.9751 90.8723 79.9751 92.2263V100.075C79.9751 101.429 81.0742 102.528 82.4283 102.528H90.2787C91.6328 102.528 92.7319 101.429 92.7319 100.075V92.2263C92.7319 90.8723 91.6328 89.7735 90.2787 89.7735H82.4283Z" fill="#00FF93" />
        <path d="M64.7638 113.812H56.9134C54.7456 113.812 52.9883 115.569 52.9883 117.736V125.585C52.9883 127.753 54.7456 129.51 56.9134 129.51H64.7638C66.9316 129.51 68.6889 127.753 68.6889 125.585V117.736C68.6889 115.569 66.9316 113.812 64.7638 113.812Z" fill="#06CE7A" />
        <path d="M56.9134 113.812H62.8012V121.661C62.8012 122.74 61.918 123.623 60.8386 123.623H52.9883V117.736C52.9883 115.578 54.7546 113.812 56.9134 113.812Z" fill="#00AA61" />
        <path d="M64.763 130.981H56.9127C53.9296 130.981 51.5156 128.568 51.5156 125.585V117.736C51.5156 114.753 53.9296 112.34 56.9127 112.34H64.763C67.7462 112.34 70.1601 114.753 70.1601 117.736V125.585C70.1601 128.568 67.7462 130.981 64.763 130.981ZM56.9127 115.283C55.5585 115.283 54.4595 116.382 54.4595 117.736V125.585C54.4595 126.939 55.5585 128.038 56.9127 128.038H64.763C66.1172 128.038 67.2163 126.939 67.2163 125.585V117.736C67.2163 116.382 66.1172 115.283 64.763 115.283H56.9127Z" fill="#00FF93" />
        <path d="M64.7638 88.3018H56.9134C54.7456 88.3018 52.9883 90.0588 52.9883 92.2263V100.075C52.9883 102.243 54.7456 104 56.9134 104H64.7638C66.9316 104 68.6889 102.243 68.6889 100.075V92.2263C68.6889 90.0588 66.9316 88.3018 64.7638 88.3018Z" fill="#06CE7A" />
        <path d="M56.9134 88.3018H62.8012V96.1508C62.8012 97.2301 61.918 98.1131 60.8386 98.1131H52.9883V92.2263C52.9883 90.0678 54.7546 88.3018 56.9134 88.3018Z" fill="#00AA61" />
        <path d="M64.763 105.472H56.9127C53.9296 105.472 51.5156 103.058 51.5156 100.075V92.2263C51.5156 89.2437 53.9296 86.8301 56.9127 86.8301H64.763C67.7462 86.8301 70.1601 89.2437 70.1601 92.2263V100.075C70.1601 103.058 67.7462 105.472 64.763 105.472ZM56.9127 89.7735C55.5585 89.7735 54.4595 90.8723 54.4595 92.2263V100.075C54.4595 101.429 55.5585 102.528 56.9127 102.528H64.763C66.1172 102.528 67.2163 101.429 67.2163 100.075V92.2263C67.2163 90.8723 66.1172 89.7735 64.763 89.7735H56.9127Z" fill="#00FF93" />
        <path d="M39.252 113.812H31.4017C29.2339 113.812 27.4766 115.569 27.4766 117.736V125.585C27.4766 127.753 29.2339 129.51 31.4017 129.51H39.252C41.4198 129.51 43.1772 127.753 43.1772 125.585V117.736C43.1772 115.569 41.4198 113.812 39.252 113.812Z" fill="#06CE7A" />
        <path d="M31.4017 113.812H37.2895V121.661C37.2895 122.74 36.4063 123.623 35.3269 123.623H27.4766V117.736C27.4766 115.578 29.2429 113.812 31.4017 113.812Z" fill="#00AA61" />
        <path d="M39.2474 130.981H31.3971C28.414 130.981 26 128.568 26 125.585V117.736C26 114.753 28.414 112.34 31.3971 112.34H39.2474C42.2305 112.34 44.6445 114.753 44.6445 117.736V125.585C44.6445 128.568 42.2305 130.981 39.2474 130.981ZM31.3971 115.283C30.0429 115.283 28.9439 116.382 28.9439 117.736V125.585C28.9439 126.939 30.0429 128.038 31.3971 128.038H39.2474C40.6016 128.038 41.7006 126.939 41.7006 125.585V117.736C41.7006 116.382 40.6016 115.283 39.2474 115.283H31.3971Z" fill="#00FF93" />
        <path d="M39.252 88.3018H31.4017C29.2339 88.3018 27.4766 90.0588 27.4766 92.2263V100.075C27.4766 102.243 29.2339 104 31.4017 104H39.252C41.4198 104 43.1772 102.243 43.1772 100.075V92.2263C43.1772 90.0588 41.4198 88.3018 39.252 88.3018Z" fill="#06CE7A" />
        <path d="M31.4017 88.3018H37.2895V96.1508C37.2895 97.2301 36.4063 98.1131 35.3269 98.1131H27.4766V92.2263C27.4766 90.0678 29.2429 88.3018 31.4017 88.3018Z" fill="#00AA61" />
        <path d="M39.2474 105.472H31.3971C28.414 105.472 26 103.058 26 100.075V92.2263C26 89.2437 28.414 86.8301 31.3971 86.8301H39.2474C42.2305 86.8301 44.6445 89.2437 44.6445 92.2263V100.075C44.6445 103.058 42.2305 105.472 39.2474 105.472ZM31.3971 89.7735C30.0429 89.7735 28.9439 90.8723 28.9439 92.2263V100.075C28.9439 101.429 30.0429 102.528 31.3971 102.528H39.2474C40.6016 102.528 41.7006 101.429 41.7006 100.075V92.2263C41.7006 90.8723 40.6016 89.7735 39.2474 89.7735H31.3971Z" fill="#00FF93" />
        <path d="M128.547 63.2825H18.6427C18.1913 63.2825 17.7399 63.0666 17.4651 62.6938C17.1904 62.321 17.0922 61.85 17.2296 61.3987L27.0033 26.3919C28.3575 21.5255 32.8321 18.1504 37.876 18.1504H109.334C114.377 18.1504 118.852 21.5451 120.206 26.3919L129.98 61.3987C130.098 61.85 130.019 62.321 129.744 62.6938C129.47 63.0666 129.038 63.2825 128.567 63.2825H128.547ZM20.5856 60.3391H126.604L117.36 27.1964C116.36 23.6055 113.062 21.0938 109.334 21.0938H37.876C34.1471 21.0938 30.8499 23.6055 29.849 27.1964L20.6053 60.3391H20.5856Z" fill="#00FF93" />
        <path d="M97.1465 14.7168H50.0446C48.9607 14.7168 48.082 15.5953 48.082 16.6791V22.5659C48.082 23.6496 48.9607 24.5281 50.0446 24.5281H97.1465C98.2304 24.5281 99.1091 23.6496 99.1091 22.5659V16.6791C99.1091 15.5953 98.2304 14.7168 97.1465 14.7168Z" fill="#06CE7A" />
        <path d="M50.0446 14.7168H95.184V19.6225C95.184 20.1719 94.7522 20.6036 94.2027 20.6036H48.082V16.6791C48.082 15.5998 48.9652 14.7168 50.0446 14.7168Z" fill="#00AA61" />
        <path d="M97.1458 25.9998H50.0439C48.1598 25.9998 46.6094 24.4496 46.6094 22.5659V16.6791C46.6094 14.7953 48.1598 13.2451 50.0439 13.2451H97.1458C99.0299 13.2451 100.58 14.7953 100.58 16.6791V22.5659C100.58 24.4496 99.0299 25.9998 97.1458 25.9998ZM50.0439 16.1885C49.7691 16.1885 49.5532 16.4044 49.5532 16.6791V22.5659C49.5532 22.8406 49.7691 23.0564 50.0439 23.0564H97.1458C97.4206 23.0564 97.6365 22.8406 97.6365 22.5659V16.6791C97.6365 16.4044 97.4206 16.1885 97.1458 16.1885H50.0439Z" fill="#00FF93" />
        <path d="M37.0709 49.5469H34.3626C33.5579 49.5469 32.8906 48.8797 32.8906 48.0752C32.8906 47.2707 33.5579 46.6035 34.3626 46.6035H37.0709C37.8756 46.6035 38.5429 47.2707 38.5429 48.0752C38.5429 48.8797 37.8756 49.5469 37.0709 49.5469Z" fill="#00FF93" />
        <path d="M46.1178 49.5469H43.4094C42.6048 49.5469 41.9375 48.8797 41.9375 48.0752C41.9375 47.2707 42.6048 46.6035 43.4094 46.6035H46.1178C46.9225 46.6035 47.5897 47.2707 47.5897 48.0752C47.5897 48.8797 46.9225 49.5469 46.1178 49.5469Z" fill="#00FF93" />
        <path d="M40.2297 55.4335C39.4251 55.4335 38.7578 54.7664 38.7578 53.9618V51.2539C38.7578 50.4494 39.4251 49.7822 40.2297 49.7822C41.0344 49.7822 41.7017 50.4494 41.7017 51.2539V53.9618C41.7017 54.7664 41.0344 55.4335 40.2297 55.4335Z" fill="#00FF93" />
        <path d="M40.2297 46.3876C39.4251 46.3876 38.7578 45.7205 38.7578 44.9159V42.208C38.7578 41.4035 39.4251 40.7363 40.2297 40.7363C41.0344 40.7363 41.7017 41.4035 41.7017 42.208V44.9159C41.7017 45.7205 41.0344 46.3876 40.2297 46.3876Z" fill="#00FF93" />
        <path d="M58.6608 37.7735H55.9524C55.1477 37.7735 54.4805 37.1063 54.4805 36.3018C54.4805 35.4972 55.1477 34.8301 55.9524 34.8301H58.6608C59.4654 34.8301 60.1327 35.4972 60.1327 36.3018C60.1327 37.1063 59.4654 37.7735 58.6608 37.7735Z" fill="#00FF93" />
        <path d="M67.7076 37.7735H64.9993C64.1946 37.7735 63.5273 37.1063 63.5273 36.3018C63.5273 35.4972 64.1946 34.8301 64.9993 34.8301H67.7076C68.5123 34.8301 69.1796 35.4972 69.1796 36.3018C69.1796 37.1063 68.5123 37.7735 67.7076 37.7735Z" fill="#00FF93" />
        <path d="M61.8196 43.6601C61.0149 43.6601 60.3477 42.9929 60.3477 42.1884V39.4805C60.3477 38.676 61.0149 38.0088 61.8196 38.0088C62.6242 38.0088 63.2915 38.676 63.2915 39.4805V42.1884C63.2915 42.9929 62.6242 43.6601 61.8196 43.6601Z" fill="#00FF93" />
        <path d="M61.8196 34.6142C61.0149 34.6142 60.3477 33.947 60.3477 33.1425V30.4346C60.3477 29.6301 61.0149 28.9629 61.8196 28.9629C62.6242 28.9629 63.2915 29.6301 63.2915 30.4346V33.1425C63.2915 33.947 62.6242 34.6142 61.8196 34.6142Z" fill="#00FF93" />
        <path d="M93.985 45.6221H91.2766C90.472 45.6221 89.8047 44.9549 89.8047 44.1504C89.8047 43.3459 90.472 42.6787 91.2766 42.6787H93.985C94.7896 42.6787 95.4569 43.3459 95.4569 44.1504C95.4569 44.9549 94.7896 45.6221 93.985 45.6221Z" fill="#00FF93" />
        <path d="M103.051 45.6221H100.343C99.5384 45.6221 98.8711 44.9549 98.8711 44.1504C98.8711 43.3459 99.5384 42.6787 100.343 42.6787H103.051C103.856 42.6787 104.523 43.3459 104.523 44.1504C104.523 44.9549 103.856 45.6221 103.051 45.6221Z" fill="#00FF93" />
        <path d="M97.1672 51.5097C96.3626 51.5097 95.6953 50.8425 95.6953 50.038V47.3301C95.6953 46.5256 96.3626 45.8584 97.1672 45.8584C97.9719 45.8584 98.6392 46.5256 98.6392 47.3301V50.038C98.6392 50.8425 97.9719 51.5097 97.1672 51.5097Z" fill="#00FF93" />
        <path d="M97.1672 42.4628C96.3626 42.4628 95.6953 41.7957 95.6953 40.9911V38.2832C95.6953 37.4787 96.3626 36.8115 97.1672 36.8115C97.9719 36.8115 98.6392 37.4787 98.6392 38.2832V40.9911C98.6392 41.7957 97.9719 42.4628 97.1672 42.4628Z" fill="#00FF93" />
    </g>
    <defs>
        <clipPath id="clip0_745_15487">
            <rect width="150" height="156" fill="white" />
        </clipPath>
    </defs>
</svg>