<svg width="162" height="157" viewBox="0 0 162 157" fill="none" xmlns="http://www.w3.org/2000/svg">
    <g clip-path="url(#clip0_745_15283_partner)">
        <path d="M29.0993 124.024C45.1704 124.024 58.1986 110.992 58.1986 94.9154C58.1986 78.8391 45.1704 65.8066 29.0993 65.8066C13.0282 65.8066 0 78.8391 0 94.9154C0 110.992 13.0282 124.024 29.0993 124.024Z" fill="#9946FF" fill-opacity="0.3" />
        <path d="M115.876 157C129.651 157 140.818 145.83 140.818 132.05C140.818 118.27 129.651 107.1 115.876 107.1C102.101 107.1 90.9336 118.27 90.9336 132.05C90.9336 145.83 102.101 157 115.876 157Z" fill="#9946FF" fill-opacity="0.3" />
        <path d="M120.43 83.1678C143.389 83.1678 162 64.55 162 41.5839C162 18.6177 143.389 0 120.43 0C97.4711 0 78.8594 18.6177 78.8594 41.5839C78.8594 64.55 97.4711 83.1678 120.43 83.1678Z" fill="#9946FF" fill-opacity="0.3" />
        <path d="M110.682 128.91H56.6406V143.465H110.682V128.91Z" fill="#5B279B" />
        <path d="M56.6406 128.91H100.29V132.382C100.29 135.834 97.5044 138.62 94.054 138.62H56.6406V128.91Z" fill="#7931D1" />
        <path d="M110.682 145.025H56.6409C55.7887 145.025 55.082 144.318 55.082 143.465V128.911C55.082 128.058 55.7887 127.352 56.6409 127.352H110.682C111.535 127.352 112.241 128.058 112.241 128.911V143.465C112.241 144.318 111.535 145.025 110.682 145.025ZM58.1998 141.906H109.124V130.47H58.1998V141.906Z" fill="#A258FF" />
        <path d="M23.384 47.8223H143.938C147.389 47.8223 150.174 50.6084 150.174 54.0598V114.356H17.1484V54.0598C17.1484 50.6084 19.9337 47.8223 23.384 47.8223Z" fill="#5B279B" />
        <path d="M23.384 47.8223H141.86V95.6437C141.86 100.239 138.139 103.961 133.546 103.961H17.1484V54.0598C17.1484 50.6084 19.9337 47.8223 23.384 47.8223Z" fill="#7931D1" />
        <path d="M150.174 115.916H17.1487C16.2965 115.916 15.5898 115.209 15.5898 114.356V54.0597C15.5898 49.7557 19.0818 46.2627 23.3843 46.2627H143.939C148.241 46.2627 151.733 49.7557 151.733 54.0597V114.356C151.733 115.209 151.026 115.916 150.174 115.916ZM18.7076 112.797H148.615V54.0597C148.615 51.4815 146.516 49.3815 143.939 49.3815H23.3843C20.8069 49.3815 18.7076 51.4815 18.7076 54.0597V112.797Z" fill="#A258FF" />
        <path d="M17.1484 114.355H150.174V122.672C150.174 126.124 147.389 128.91 143.938 128.91H23.384C19.9337 128.91 17.1484 126.124 17.1484 122.672V114.355Z" fill="#5B279B" />
        <path d="M17.1484 114.355H137.703V117.828C137.703 121.279 134.917 124.065 131.467 124.065H17.1484V114.355Z" fill="#7931D1" />
        <path d="M143.939 130.47H23.3843C19.0818 130.47 15.5898 126.977 15.5898 122.673V114.356C15.5898 113.504 16.2965 112.797 17.1487 112.797H150.174C151.026 112.797 151.733 113.504 151.733 114.356V122.673C151.733 126.977 148.241 130.47 143.939 130.47ZM18.7076 115.916V122.673C18.7076 125.251 20.8069 127.351 23.3843 127.351H143.939C146.516 127.351 148.615 125.251 148.615 122.673V115.916H18.7076Z" fill="#A258FF" />
        <path d="M125.231 145.024H42.0901C41.2379 145.024 40.5312 144.317 40.5312 143.465C40.5312 142.612 41.2379 141.905 42.0901 141.905H125.231C126.083 141.905 126.79 142.612 126.79 143.465C126.79 144.317 126.083 145.024 125.231 145.024Z" fill="#A258FF" />
        <path d="M83.6606 123.712C84.8085 123.712 85.7391 122.781 85.7391 121.633C85.7391 120.485 84.8085 119.554 83.6606 119.554C82.5126 119.554 81.582 120.485 81.582 121.633C81.582 122.781 82.5126 123.712 83.6606 123.712Z" fill="#A258FF" />
        <path d="M37.9344 18.7129H129.389C131.676 18.7129 133.546 20.5842 133.546 22.8713V35.3464H33.7773V22.8713C33.7773 20.5842 35.648 18.7129 37.9344 18.7129Z" fill="#5B279B" />
        <path d="M37.9344 18.7129H125.232V27.0297C125.232 29.3168 123.362 31.1881 121.075 31.1881H33.7773V22.8713C33.7773 20.5842 35.648 18.7129 37.9344 18.7129Z" fill="#7931D1" />
        <path d="M133.547 36.9066H33.7776C32.9254 36.9066 32.2188 36.1997 32.2188 35.3473V22.8721C32.2188 19.7117 34.7753 17.1543 37.9347 17.1543H129.39C132.549 17.1543 135.106 19.7117 135.106 22.8721V35.3473C135.106 36.1997 134.399 36.9066 133.547 36.9066ZM35.3365 33.7879H131.988V22.8721C131.988 21.4374 130.824 20.2731 129.39 20.2731H37.9347C36.5005 20.2731 35.3365 21.4374 35.3365 22.8721V33.7879Z" fill="#A258FF" />
        <path d="M62.8746 20.2725C62.0224 20.2725 61.3157 19.5656 61.3157 18.7131C61.3157 14.9913 58.281 11.9557 54.5605 11.9557C50.8399 11.9557 47.8053 14.9913 47.8053 18.7131C47.8053 19.5656 47.0986 20.2725 46.2464 20.2725C45.3942 20.2725 44.6875 19.5656 44.6875 18.7131C44.6875 13.2656 49.1148 8.83691 54.5605 8.83691C60.0062 8.83691 64.4335 13.2656 64.4335 18.7131C64.4335 19.5656 63.7268 20.2725 62.8746 20.2725Z" fill="#A258FF" />
        <path d="M54.5605 28.5899C49.1148 28.5899 44.6875 24.1612 44.6875 18.7137C44.6875 17.8612 45.3942 17.1543 46.2464 17.1543C47.0986 17.1543 47.8053 17.8612 47.8053 18.7137C47.8053 22.4355 50.8399 25.4711 54.5605 25.4711C55.4127 25.4711 56.1194 26.178 56.1194 27.0305C56.1194 27.8829 55.4127 28.5899 54.5605 28.5899Z" fill="#A258FF" />
        <path d="M91.9761 20.2725C91.1239 20.2725 90.4172 19.5656 90.4172 18.7131C90.4172 14.9913 87.3826 11.9557 83.662 11.9557C79.9415 11.9557 76.9068 14.9913 76.9068 18.7131C76.9068 19.5656 76.2001 20.2725 75.348 20.2725C74.4958 20.2725 73.7891 19.5656 73.7891 18.7131C73.7891 13.2656 78.2163 8.83691 83.662 8.83691C89.1078 8.83691 93.535 13.2656 93.535 18.7131C93.535 19.5656 92.8283 20.2725 91.9761 20.2725Z" fill="#A258FF" />
        <path d="M83.662 28.5899C78.2163 28.5899 73.7891 24.1612 73.7891 18.7137C73.7891 17.8612 74.4958 17.1543 75.348 17.1543C76.2001 17.1543 76.9068 17.8612 76.9068 18.7137C76.9068 22.4355 79.9415 25.4711 83.662 25.4711C84.5142 25.4711 85.2209 26.178 85.2209 27.0305C85.2209 27.8829 84.5142 28.5899 83.662 28.5899Z" fill="#A258FF" />
        <path d="M121.074 20.2725C120.222 20.2725 119.515 19.5656 119.515 18.7131C119.515 14.9913 116.48 11.9557 112.76 11.9557C109.039 11.9557 106.005 14.9913 106.005 18.7131C106.005 19.5656 105.298 20.2725 104.446 20.2725C103.593 20.2725 102.887 19.5656 102.887 18.7131C102.887 13.2656 107.314 8.83691 112.76 8.83691C118.205 8.83691 122.633 13.2656 122.633 18.7131C122.633 19.5656 121.926 20.2725 121.074 20.2725Z" fill="#A258FF" />
        <path d="M112.76 28.5889C107.314 28.5889 102.887 24.1602 102.887 18.7127C102.887 17.8602 103.593 17.1533 104.446 17.1533C105.298 17.1533 106.005 17.8602 106.005 18.7127C106.005 22.4345 109.039 25.4701 112.76 25.4701C113.612 25.4701 114.319 26.177 114.319 27.0295C114.319 27.882 113.612 28.5889 112.76 28.5889Z" fill="#A258FF" />
        <path d="M116.918 114.356H33.7773V35.3467H133.546V97.7225C127.061 104.21 123.403 107.869 116.918 114.356Z" fill="#5B279B" />
        <path d="M33.7773 35.3467H118.997V76.9306C118.997 94.1463 105.029 108.118 87.8189 108.118H33.7773V35.3467Z" fill="#7931D1" />
        <path d="M116.919 115.915H33.7776C32.9254 115.915 32.2188 115.208 32.2188 114.356V35.3465C32.2188 34.494 32.9254 33.7871 33.7776 33.7871H133.547C134.399 33.7871 135.106 34.494 135.106 35.3465V97.7223C135.106 98.1382 134.939 98.5332 134.648 98.8243L118.02 115.458C117.729 115.749 117.334 115.915 116.919 115.915ZM35.3365 112.797H116.274L131.988 97.0778V36.9059H35.3365V112.797Z" fill="#A258FF" />
        <path d="M83.6606 49.9014L91.7669 66.327L109.892 68.9676L96.7761 81.7546L99.8731 99.802L83.6606 91.2773L67.4482 99.802L70.5452 81.7546L57.4297 68.9676L75.5544 66.327L83.6606 49.9014Z" fill="#7931D1" />
        <path d="M96.7777 81.7544L109.893 68.9673L98.2951 67.2832L88.5676 76.7643C87.4452 77.8663 86.9463 79.4257 87.1958 80.9643L89.4821 94.3543L99.854 99.8018L96.757 81.7544H96.7777Z" fill="#5B279B" />
        <path d="M67.4507 101.361C67.1182 101.361 66.8064 101.257 66.5362 101.07C66.0581 100.717 65.8087 100.134 65.9126 99.5522L68.8641 82.3157L56.3306 70.1108C55.9149 69.695 55.7486 69.0712 55.9357 68.5099C56.1228 67.9485 56.6008 67.5326 57.2036 67.4495L74.5177 64.9336L82.2498 49.2357C82.7694 48.1753 84.5154 48.1753 85.035 49.2357L92.7879 64.9336L110.102 67.4495C110.684 67.5326 111.183 67.9485 111.37 68.5099C111.557 69.0712 111.391 69.695 110.975 70.1108L98.4415 82.3157L101.393 99.5522C101.497 100.134 101.247 100.737 100.769 101.07C100.291 101.424 99.647 101.465 99.1274 101.195L83.6424 93.0444L68.1574 101.195C67.9288 101.32 67.6793 101.382 67.4299 101.382L67.4507 101.361ZM83.6632 89.7176C83.9126 89.7176 84.162 89.78 84.3907 89.9048L97.7971 96.9532L95.2406 82.0246C95.1574 81.5256 95.3237 81.0058 95.6978 80.6524L106.548 70.0693L91.5616 67.8861C91.0627 67.8029 90.6055 67.4911 90.3976 67.0336L83.684 53.4357L76.9703 67.0336C76.7417 67.4911 76.3052 67.8237 75.8064 67.8861L60.8202 70.0693L71.6701 80.6524C72.0442 81.0058 72.2105 81.5256 72.1274 82.0246L69.5708 96.9532L82.9773 89.9048C83.2059 89.78 83.4553 89.7176 83.7048 89.7176H83.6632Z" fill="#A258FF" />
        <path d="M116.918 114.356L133.546 97.7227H116.918V114.356Z" fill="#7931D1" />
        <path d="M116.918 115.915C116.71 115.915 116.523 115.874 116.315 115.791C115.734 115.541 115.359 114.98 115.359 114.356V97.7225C115.359 96.87 116.066 96.1631 116.918 96.1631H133.546C134.17 96.1631 134.752 96.5373 134.981 97.1195C135.209 97.7017 135.085 98.367 134.648 98.8245L118.02 115.458C117.729 115.749 117.313 115.915 116.918 115.915ZM118.477 99.2819V110.593L129.784 99.2819H118.477Z" fill="#A258FF" />
        <path d="M42.0901 103.44C41.2379 103.44 40.5312 102.733 40.5312 101.881V79.6336C40.5312 78.7811 41.2379 78.0742 42.0901 78.0742C42.9423 78.0742 43.649 78.7811 43.649 79.6336V101.881C43.649 102.733 42.9423 103.44 42.0901 103.44Z" fill="#A258FF" />
        <path d="M42.0901 72.8765C41.2379 72.8765 40.5312 72.1696 40.5312 71.3171V66.535C40.5312 65.6825 41.2379 64.9756 42.0901 64.9756C42.9423 64.9756 43.649 65.6825 43.649 66.535V71.3171C43.649 72.1696 42.9423 72.8765 42.0901 72.8765Z" fill="#A258FF" />
        <path d="M125.254 80.5692C124.402 80.5692 123.695 79.8623 123.695 79.0098V58.8416C123.695 57.9892 124.402 57.2822 125.254 57.2822C126.106 57.2822 126.813 57.9892 126.813 58.8416V79.0098C126.813 79.8623 126.106 80.5692 125.254 80.5692Z" fill="#A258FF" />
        <path d="M125.254 52.0845C124.402 52.0845 123.695 51.3776 123.695 50.5251V45.743C123.695 44.8905 124.402 44.1836 125.254 44.1836C126.106 44.1836 126.813 44.8905 126.813 45.743V50.5251C126.813 51.3776 126.106 52.0845 125.254 52.0845Z" fill="#A258FF" />
    </g>
    <defs>
        <clipPath id="clip0_745_15283_partner">
            <rect width="162" height="157" fill="white" />
        </clipPath>
    </defs>
</svg>
