<svg width="174" height="171" viewBox="0 0 174 171" fill="none" xmlns="http://www.w3.org/2000/svg">
    <g clip-path="url(#clip0_745_15185)">
        <path opacity="0.2" d="M144.192 132.036C160.655 132.036 174.001 118.72 174.001 102.294C174.001 85.8671 160.655 72.5508 144.192 72.5508C127.729 72.5508 114.383 85.8671 114.383 102.294C114.383 118.72 127.729 132.036 144.192 132.036Z" fill="#1FCFF1" />
        <path opacity="0.2" d="M89.3632 50.9877C103.474 50.9877 114.914 39.5737 114.914 25.4939C114.914 11.414 103.474 0 89.3632 0C75.2519 0 63.8125 11.414 63.8125 25.4939C63.8125 39.5737 75.2519 50.9877 89.3632 50.9877Z" fill="#1FCFF1" />
        <path opacity="0.2" d="M42.5844 171C66.1032 171 85.1689 151.977 85.1689 128.51C85.1689 105.044 66.1032 86.0205 42.5844 86.0205C19.0657 86.0205 0 105.044 0 128.51C0 151.977 19.0657 171 42.5844 171Z" fill="#1FCFF1" />
        <path d="M27.6125 152.963C26.7396 152.963 26.0156 152.24 26.0156 151.369V15.402C26.0156 14.5309 26.7396 13.8086 27.6125 13.8086C28.4855 13.8086 29.2095 14.5309 29.2095 15.402V151.369C29.2095 152.24 28.4855 152.963 27.6125 152.963Z" fill="#1FCFF1" />
        <path d="M27.6138 144.465H19.0969C18.2239 144.465 17.5 143.743 17.5 142.872C17.5 142.001 18.2239 141.278 19.0969 141.278H27.6138C28.4868 141.278 29.2107 142.001 29.2107 142.872C29.2107 143.743 28.4868 144.465 27.6138 144.465Z" fill="#1FCFF1" />
        <path d="M27.6138 124.643H19.0969C18.2239 124.643 17.5 123.92 17.5 123.049C17.5 122.178 18.2239 121.456 19.0969 121.456H27.6138C28.4868 121.456 29.2107 122.178 29.2107 123.049C29.2107 123.92 28.4868 124.643 27.6138 124.643Z" fill="#1FCFF1" />
        <path d="M27.6138 104.8H19.0969C18.2239 104.8 17.5 104.078 17.5 103.207C17.5 102.336 18.2239 101.613 19.0969 101.613H27.6138C28.4868 101.613 29.2107 102.336 29.2107 103.207C29.2107 104.078 28.4868 104.8 27.6138 104.8Z" fill="#1FCFF1" />
        <path d="M27.6138 84.9787H19.0969C18.2239 84.9787 17.5 84.2564 17.5 83.3854C17.5 82.5143 18.2239 81.792 19.0969 81.792H27.6138C28.4868 81.792 29.2107 82.5143 29.2107 83.3854C29.2107 84.2564 28.4868 84.9787 27.6138 84.9787Z" fill="#1FCFF1" />
        <path d="M27.6138 65.1574H19.0969C18.2239 65.1574 17.5 64.4351 17.5 63.5641C17.5 62.693 18.2239 61.9707 19.0969 61.9707H27.6138C28.4868 61.9707 29.2107 62.693 29.2107 63.5641C29.2107 64.4351 28.4868 65.1574 27.6138 65.1574Z" fill="#1FCFF1" />
        <path d="M27.6138 45.3147H19.0969C18.2239 45.3147 17.5 44.5923 17.5 43.7213C17.5 42.8503 18.2239 42.1279 19.0969 42.1279H27.6138C28.4868 42.1279 29.2107 42.8503 29.2107 43.7213C29.2107 44.5923 28.4868 45.3147 27.6138 45.3147Z" fill="#1FCFF1" />
        <path d="M27.6138 25.4934H19.0969C18.2239 25.4934 17.5 24.771 17.5 23.9C17.5 23.029 18.2239 22.3066 19.0969 22.3066H27.6138C28.4868 22.3066 29.2107 23.029 29.2107 23.9C29.2107 24.771 28.4868 25.4934 27.6138 25.4934Z" fill="#1FCFF1" />
        <path d="M155.367 144.465H19.0969C18.2239 144.465 17.5 143.743 17.5 142.872C17.5 142.001 18.2239 141.278 19.0969 141.278H155.367C156.24 141.278 156.964 142.001 156.964 142.872C156.964 143.743 156.24 144.465 155.367 144.465Z" fill="#1FCFF1" />
        <path d="M146.851 152.962C145.978 152.962 145.254 152.24 145.254 151.369V142.871C145.254 142 145.978 141.277 146.851 141.277C147.724 141.277 148.448 142 148.448 142.871V151.369C148.448 152.24 147.724 152.962 146.851 152.962Z" fill="#1FCFF1" />
        <path d="M126.984 152.963C126.111 152.963 125.387 152.241 125.387 151.37V142.872C125.387 142.001 126.111 141.278 126.984 141.278C127.857 141.278 128.581 142.001 128.581 142.872V151.37C128.581 152.241 127.857 152.963 126.984 152.963Z" fill="#1FCFF1" />
        <path d="M107.097 152.962C106.224 152.962 105.5 152.24 105.5 151.369V142.871C105.5 142 106.224 141.277 107.097 141.277C107.97 141.277 108.694 142 108.694 142.871V151.369C108.694 152.24 107.97 152.962 107.097 152.962Z" fill="#1FCFF1" />
        <path d="M87.2297 152.962C86.3567 152.962 85.6328 152.24 85.6328 151.369V142.871C85.6328 142 86.3567 141.277 87.2297 141.277C88.1027 141.277 88.8266 142 88.8266 142.871V151.369C88.8266 152.24 88.1027 152.962 87.2297 152.962Z" fill="#1FCFF1" />
        <path d="M67.3664 152.963C66.4935 152.963 65.7695 152.241 65.7695 151.37V142.872C65.7695 142.001 66.4935 141.278 67.3664 141.278C68.2394 141.278 68.9634 142.001 68.9634 142.872V151.37C68.9634 152.241 68.2394 152.963 67.3664 152.963Z" fill="#1FCFF1" />
        <path d="M47.4797 152.962C46.6067 152.962 45.8828 152.24 45.8828 151.369V142.871C45.8828 142 46.6067 141.277 47.4797 141.277C48.3527 141.277 49.0766 142 49.0766 142.871V151.369C49.0766 152.24 48.3527 152.962 47.4797 152.962Z" fill="#1FCFF1" />
        <path d="M27.6125 152.962C26.7396 152.962 26.0156 152.24 26.0156 151.369V142.871C26.0156 142 26.7396 141.277 27.6125 141.277C28.4855 141.277 29.2095 142 29.2095 142.871V151.369C29.2095 152.24 28.4855 152.962 27.6125 152.962Z" fill="#1FCFF1" />
        <path d="M27.6133 105.82L51.7374 84.3413L78.012 90.4598L106.394 62.6078L132.648 67.1542L155.367 40.8955V142.871H27.6133V105.82Z" fill="#2CB5E0" />
        <g filter="url(#filter0_b_745_15185)">
            <path d="M27.6133 123.793L60.744 94.3055C61.7873 93.3919 63.1926 93.0308 64.5553 93.3282L86.3798 98.427C87.8064 98.7669 89.2968 98.342 90.3402 97.3222L115.508 72.6357C116.487 71.6797 117.871 71.2548 119.212 71.4885L140.952 75.2488C142.421 75.5037 143.933 74.9726 144.912 73.8466L155.388 61.7158V142.871H27.6133V123.793Z" fill="#217B97" fill-opacity="0.3" />
        </g>
        <path d="M155.366 144.464H27.6125C26.7396 144.464 26.0156 143.742 26.0156 142.871V105.82C26.0156 105.374 26.2073 104.927 26.5479 104.63L50.672 83.1514C51.0553 82.8115 51.5876 82.6628 52.0986 82.7903L77.5002 88.7388L105.265 61.5029C105.627 61.1418 106.138 60.993 106.649 61.078L132.008 65.4757L154.131 39.8969C154.557 39.387 155.281 39.217 155.898 39.4507C156.516 39.6844 156.941 40.2793 156.941 40.9379V142.913C156.941 143.784 156.218 144.507 155.345 144.507L155.366 144.464ZM29.2095 141.277H153.769V45.1868L133.861 68.2163C133.499 68.6412 132.945 68.8324 132.37 68.7474L106.926 64.3497L79.1184 91.6282C78.7351 92.0106 78.1603 92.1593 77.628 92.053L52.1838 86.1045L29.2095 106.563V141.32V141.277Z" fill="#1FCFF1" />
        <path d="M27.6133 131.547L47.4789 117.377L67.3658 124.876L89.3607 102.909L109.226 108.348L126.984 88.2715L155.367 100.487V142.871H27.6133V131.547Z" fill="#2CB5E0" />
        <g filter="url(#filter1_b_745_15185)">
            <path d="M35.1523 142.871L54.1663 129.317C55.3161 128.488 56.8065 128.297 58.1479 128.807L73.3293 134.522C74.9049 135.117 76.6722 134.734 77.8432 133.544L96.1545 115.274C97.2404 114.19 98.8161 113.787 100.285 114.19L115.211 118.269C116.787 118.694 118.447 118.206 119.533 116.973L133.48 101.21C134.693 99.8288 136.674 99.3827 138.356 100.126L155.389 107.456V142.871H35.1523Z" fill="#217B97" fill-opacity="0.3" />
        </g>
        <path d="M155.366 144.464H27.6125C26.7396 144.464 26.0156 143.742 26.0156 142.871V131.548C26.0156 131.038 26.2711 130.549 26.6757 130.252L46.5413 116.081C46.9672 115.784 47.5421 115.699 48.0318 115.89L66.9393 123.028L88.2102 101.805C88.6147 101.401 89.2109 101.252 89.7645 101.401L108.672 106.564L125.748 87.252C126.196 86.7421 126.941 86.5722 127.579 86.8484L155.962 99.0642C156.537 99.3191 156.92 99.8927 156.92 100.53V142.914C156.92 143.785 156.196 144.507 155.323 144.507L155.366 144.464ZM29.2095 141.278H153.769V101.55L127.409 90.2263L110.439 109.432C110.035 109.878 109.417 110.069 108.821 109.92L89.8497 104.737L68.5149 126.024C68.0678 126.47 67.4077 126.619 66.8115 126.385L47.7337 119.183L29.2307 132.376V141.299L29.2095 141.278Z" fill="#1FCFF1" />
        <g filter="url(#filter2_b_745_15185)">
            <path d="M126.984 95.7074C131.099 95.7074 134.436 92.3783 134.436 88.2716C134.436 84.165 131.099 80.8359 126.984 80.8359C122.868 80.8359 119.531 84.165 119.531 88.2716C119.531 92.3783 122.868 95.7074 126.984 95.7074Z" fill="#217B97" fill-opacity="0.3" />
        </g>
        <path d="M134.439 88.2716C134.439 84.1714 131.096 80.8359 126.986 80.8359C123.239 80.8359 120.152 83.619 119.641 87.2094C120.982 85.8922 122.834 85.0849 124.857 85.0849C128.967 85.0849 132.309 88.4204 132.309 92.5206C132.309 92.8818 132.246 93.2217 132.203 93.5829C133.587 92.2232 134.439 90.3536 134.439 88.2716Z" fill="#9CE7FF" />
        <path d="M126.983 97.3218C122 97.3218 117.934 93.264 117.934 88.2927C117.934 83.3214 122 79.2637 126.983 79.2637C131.965 79.2637 136.032 83.3214 136.032 88.2927C136.032 93.264 131.965 97.3218 126.983 97.3218ZM126.983 82.4504C123.746 82.4504 121.127 85.0635 121.127 88.2927C121.127 91.522 123.746 94.1351 126.983 94.1351C130.219 94.1351 132.838 91.522 132.838 88.2927C132.838 85.0635 130.219 82.4504 126.983 82.4504Z" fill="#1FCFF1" />
        <g filter="url(#filter3_b_745_15185)">
            <path d="M89.3624 111.068C93.4782 111.068 96.8147 107.739 96.8147 103.632C96.8147 99.5254 93.4782 96.1963 89.3624 96.1963C85.2467 96.1963 81.9102 99.5254 81.9102 103.632C81.9102 107.739 85.2467 111.068 89.3624 111.068Z" fill="#217B97" fill-opacity="0.3" />
        </g>
        <path d="M89.3614 96.1963C85.614 96.1963 82.5266 98.9794 82.0156 102.57C83.357 101.253 85.2095 100.445 87.2322 100.445C91.3416 100.445 94.6845 103.781 94.6845 107.881C94.6845 108.242 94.6206 108.582 94.578 108.943C95.962 107.605 96.8137 105.714 96.8137 103.632C96.8137 99.5317 93.4708 96.1963 89.3614 96.1963Z" fill="#9CE7FF" />
        <path d="M89.3617 112.661C84.3793 112.661 80.3125 108.603 80.3125 103.632C80.3125 98.6603 84.3793 94.6025 89.3617 94.6025C94.3441 94.6025 98.4109 98.6603 98.4109 103.632C98.4109 108.603 94.3441 112.661 89.3617 112.661ZM89.3617 97.7893C86.1253 97.7893 83.5063 100.402 83.5063 103.632C83.5063 106.861 86.1253 109.474 89.3617 109.474C92.5981 109.474 95.2171 106.861 95.2171 103.632C95.2171 100.402 92.5981 97.7893 89.3617 97.7893Z" fill="#1FCFF1" />
        <g filter="url(#filter4_b_745_15185)">
            <path d="M51.7374 93.1156C55.8532 93.1156 59.1897 89.7865 59.1897 85.6798C59.1897 81.5732 55.8532 78.2441 51.7374 78.2441C47.6217 78.2441 44.2852 81.5732 44.2852 85.6798C44.2852 89.7865 47.6217 93.1156 51.7374 93.1156Z" fill="#217B97" fill-opacity="0.3" />
        </g>
        <path d="M51.7364 78.2441C47.989 78.2441 44.9016 81.0272 44.3906 84.6176C45.732 83.3004 47.5845 82.4931 49.6072 82.4931C53.7166 82.4931 57.0595 85.8286 57.0595 89.9288C57.0595 90.29 56.9956 90.6299 56.953 90.9911C58.337 89.6526 59.1887 87.7618 59.1887 85.6798C59.1887 81.5796 55.8458 78.2441 51.7364 78.2441Z" fill="#9CE7FF" />
        <path d="M51.7367 94.7095C46.7543 94.7095 42.6875 90.6517 42.6875 85.6804C42.6875 80.7091 46.7543 76.6514 51.7367 76.6514C56.7191 76.6514 60.7859 80.7091 60.7859 85.6804C60.7859 90.6517 56.7191 94.7095 51.7367 94.7095ZM51.7367 79.8381C48.5003 79.8381 45.8813 82.4512 45.8813 85.6804C45.8813 88.9097 48.5003 91.5228 51.7367 91.5228C54.9731 91.5228 57.5921 88.9097 57.5921 85.6804C57.5921 82.4512 54.9731 79.8381 51.7367 79.8381Z" fill="#1FCFF1" />
        <g filter="url(#filter5_b_745_15185)">
            <path d="M106.394 71.1702C110.509 71.1702 113.846 67.8412 113.846 63.7345C113.846 59.6279 110.509 56.2988 106.394 56.2988C102.278 56.2988 98.9414 59.6279 98.9414 63.7345C98.9414 67.8412 102.278 71.1702 106.394 71.1702Z" fill="#217B97" fill-opacity="0.3" />
        </g>
        <path d="M106.393 56.2988C102.645 56.2988 99.5579 59.0819 99.0469 62.6723C100.388 61.3551 102.241 60.5478 104.263 60.5478C108.373 60.5478 111.716 63.8832 111.716 67.9835C111.716 68.3447 111.652 68.6846 111.609 69.0458C112.993 67.6861 113.845 65.8165 113.845 63.7345C113.845 59.6343 110.502 56.2988 106.393 56.2988Z" fill="#9CE7FF" />
        <path d="M106.397 72.7632C101.414 72.7632 97.3477 68.7055 97.3477 63.7341C97.3477 58.7628 101.414 54.7051 106.397 54.7051C111.379 54.7051 115.446 58.7628 115.446 63.7341C115.446 68.7055 111.379 72.7632 106.397 72.7632ZM106.397 57.8918C103.16 57.8918 100.541 60.5049 100.541 63.7341C100.541 66.9634 103.16 69.5765 106.397 69.5765C109.633 69.5765 112.252 66.9634 112.252 63.7341C112.252 60.5049 109.633 57.8918 106.397 57.8918Z" fill="#1FCFF1" />
        <g filter="url(#filter6_b_745_15185)">
            <path d="M65.9413 66.39C80.0525 66.39 91.492 54.9761 91.492 40.8962C91.492 26.8163 80.0525 15.4023 65.9413 15.4023C51.83 15.4023 40.3906 26.8163 40.3906 40.8962C40.3906 54.9761 51.83 66.39 65.9413 66.39Z" fill="#217B97" fill-opacity="0.3" />
        </g>
        <path d="M91.4922 40.8962C91.4922 26.8108 80.0583 15.4023 65.9416 15.4023C57.2544 15.4023 49.5892 19.7363 44.9688 26.3435C49.0994 23.4754 54.1244 21.7758 59.5539 21.7758C73.6707 21.7758 85.1046 33.1843 85.1046 47.2697C85.1046 52.6871 83.4012 57.7009 80.5267 61.8224C87.1486 57.2123 91.4922 49.5641 91.4922 40.8962Z" fill="#2CB5E0" />
        <path d="M65.9405 67.983C50.9721 67.983 38.793 55.831 38.793 40.8958C38.793 25.9607 50.9721 13.8086 65.9405 13.8086C80.909 13.8086 93.0881 25.9607 93.0881 40.8958C93.0881 55.831 80.909 67.983 65.9405 67.983ZM65.9405 16.9953C52.7394 16.9953 41.9868 27.724 41.9868 40.8958C41.9868 54.0676 52.7394 64.7963 65.9405 64.7963C79.1417 64.7963 89.8943 54.0676 89.8943 40.8958C89.8943 27.724 79.1417 16.9953 65.9405 16.9953Z" fill="#1FCFF1" />
        <path d="M81.9105 43.0205C83.0864 43.0205 84.0397 42.0693 84.0397 40.896C84.0397 39.7226 83.0864 38.7715 81.9105 38.7715C80.7345 38.7715 79.7812 39.7226 79.7812 40.896C79.7812 42.0693 80.7345 43.0205 81.9105 43.0205Z" fill="#1FCFF1" />
        <path d="M49.973 43.0205C51.1489 43.0205 52.1022 42.0693 52.1022 40.896C52.1022 39.7226 51.1489 38.7715 49.973 38.7715C48.797 38.7715 47.8438 39.7226 47.8438 40.896C47.8438 42.0693 48.797 43.0205 49.973 43.0205Z" fill="#1FCFF1" />
        <path d="M65.9629 55.9797C62.2154 55.9797 58.8939 53.8977 57.5312 50.6685C57.1905 49.8612 57.5737 48.9264 58.3828 48.5865C59.2132 48.2466 60.1288 48.629 60.4695 49.4363C61.3212 51.4546 63.5143 52.793 65.9416 52.793C69.1567 52.793 71.7756 50.4773 71.7756 47.6517C71.7756 45.2936 70.7536 42.5105 65.899 42.5105C59.2345 42.5105 56.8711 38.1978 56.8711 34.1825C56.8711 29.5936 60.9166 25.8545 65.899 25.8545C69.6464 25.8545 72.968 27.9365 74.3307 31.1657C74.6714 31.973 74.2881 32.9078 73.479 33.2477C72.6699 33.5876 71.7331 33.2052 71.3924 32.3979C70.5407 30.3797 68.3476 29.0412 65.9203 29.0412C62.7052 29.0412 60.0862 31.3569 60.0862 34.1825C60.0862 36.5407 61.1082 39.3237 65.9203 39.3237C72.606 39.3237 74.9908 43.6365 74.9908 47.6517C74.9908 52.2406 70.9452 55.9797 65.9629 55.9797Z" fill="#1FCFF1" />
        <path d="M65.9172 28.9983C65.0442 28.9983 64.3203 28.276 64.3203 27.405V23.6871C64.3203 22.8161 65.0442 22.0938 65.9172 22.0938C66.7902 22.0938 67.5141 22.8161 67.5141 23.6871V27.405C67.5141 28.276 66.7902 28.9983 65.9172 28.9983Z" fill="#1FCFF1" />
        <path d="M65.9172 59.6761C65.0442 59.6761 64.3203 58.9537 64.3203 58.0827V54.3649C64.3203 53.4938 65.0442 52.7715 65.9172 52.7715C66.7902 52.7715 67.5141 53.4938 67.5141 54.3649V58.0827C67.5141 58.9537 66.7902 59.6761 65.9172 59.6761Z" fill="#1FCFF1" />
        <path d="M155.368 16.9953H125.644C124.771 16.9953 124.047 16.273 124.047 15.402C124.047 14.5309 124.771 13.8086 125.644 13.8086H155.368C156.241 13.8086 156.965 14.5309 156.965 15.402C156.965 16.273 156.241 16.9953 155.368 16.9953Z" fill="#1FCFF1" />
        <path d="M117.125 16.9953H104.265C103.392 16.9953 102.668 16.273 102.668 15.402C102.668 14.5309 103.392 13.8086 104.265 13.8086H117.125C117.998 13.8086 118.722 14.5309 118.722 15.402C118.722 16.273 117.998 16.9953 117.125 16.9953Z" fill="#1FCFF1" />
        <path d="M155.369 27.6174H139.847C138.974 27.6174 138.25 26.8951 138.25 26.024C138.25 25.153 138.974 24.4307 139.847 24.4307H155.369C156.242 24.4307 156.966 25.153 156.966 26.024C156.966 26.8951 156.242 27.6174 155.369 27.6174Z" fill="#1FCFF1" />
        <path d="M131.329 27.6184H104.288C103.415 27.6184 102.691 26.896 102.691 26.025C102.691 25.154 103.415 24.4316 104.288 24.4316H131.329C132.202 24.4316 132.926 25.154 132.926 26.025C132.926 26.896 132.202 27.6184 131.329 27.6184Z" fill="#1FCFF1" />
        <path d="M142.592 38.2404H125.644C124.771 38.2404 124.047 37.5181 124.047 36.6471C124.047 35.776 124.771 35.0537 125.644 35.0537H142.592C143.465 35.0537 144.189 35.776 144.189 36.6471C144.189 37.5181 143.465 38.2404 142.592 38.2404Z" fill="#1FCFF1" />
        <path d="M117.125 38.2404H104.265C103.392 38.2404 102.668 37.5181 102.668 36.6471C102.668 35.776 103.392 35.0537 104.265 35.0537H117.125C117.998 35.0537 118.722 35.776 118.722 36.6471C118.722 37.5181 117.998 38.2404 117.125 38.2404Z" fill="#1FCFF1" />
        <path d="M146.852 116.846H138.335C137.462 116.846 136.738 116.124 136.738 115.253C136.738 114.382 137.462 113.659 138.335 113.659H146.852C147.725 113.659 148.449 114.382 148.449 115.253C148.449 116.124 147.725 116.846 146.852 116.846Z" fill="#1FCFF1" />
        <path d="M142.593 121.095C141.72 121.095 140.996 120.373 140.996 119.501V111.004C140.996 110.132 141.72 109.41 142.593 109.41C143.466 109.41 144.19 110.132 144.19 111.004V119.501C144.19 120.373 143.466 121.095 142.593 121.095Z" fill="#1FCFF1" />
        <path d="M127.688 133.842H119.171C118.298 133.842 117.574 133.12 117.574 132.249C117.574 131.378 118.298 130.655 119.171 130.655H127.688C128.561 130.655 129.285 131.378 129.285 132.249C129.285 133.12 128.561 133.842 127.688 133.842Z" fill="#1FCFF1" />
        <path d="M123.429 138.091C122.556 138.091 121.832 137.369 121.832 136.498V128C121.832 127.129 122.556 126.406 123.429 126.406C124.302 126.406 125.026 127.129 125.026 128V136.498C125.026 137.369 124.302 138.091 123.429 138.091Z" fill="#1FCFF1" />
        <path d="M104.266 127.469H95.7493C94.8763 127.469 94.1523 126.747 94.1523 125.876C94.1523 125.005 94.8763 124.282 95.7493 124.282H104.266C105.139 124.282 105.863 125.005 105.863 125.876C105.863 126.747 105.139 127.469 104.266 127.469Z" fill="#1FCFF1" />
        <path d="M100.007 131.718C99.1341 131.718 98.4102 130.996 98.4102 130.125V121.627C98.4102 120.756 99.1341 120.033 100.007 120.033C100.88 120.033 101.604 120.756 101.604 121.627V130.125C101.604 130.996 100.88 131.718 100.007 131.718Z" fill="#1FCFF1" />
        <path d="M65.938 106.224H57.4211C56.5482 106.224 55.8242 105.502 55.8242 104.63C55.8242 103.759 56.5482 103.037 57.4211 103.037H65.938C66.811 103.037 67.5349 103.759 67.5349 104.63C67.5349 105.502 66.811 106.224 65.938 106.224Z" fill="#1FCFF1" />
        <path d="M61.6829 110.473C60.8099 110.473 60.0859 109.75 60.0859 108.879V100.381C60.0859 99.5104 60.8099 98.7881 61.6829 98.7881C62.5558 98.7881 63.2798 99.5104 63.2798 100.381V108.879C63.2798 109.75 62.5558 110.473 61.6829 110.473Z" fill="#1FCFF1" />
    </g>
    <defs>
        <filter id="filter0_b_745_15185" x="-12.3867" y="21.7158" width="207.773" height="161.155" filterUnits="userSpaceOnUse" color-interpolation-filters="sRGB">
            <feFlood flood-opacity="0" result="BackgroundImageFix" />
            <feGaussianBlur in="BackgroundImageFix" stdDeviation="20" />
            <feComposite in2="SourceAlpha" operator="in" result="effect1_backgroundBlur_745_15185" />
            <feBlend mode="normal" in="SourceGraphic" in2="effect1_backgroundBlur_745_15185" result="shape" />
        </filter>
        <filter id="filter1_b_745_15185" x="-4.84766" y="59.7695" width="200.238" height="123.102" filterUnits="userSpaceOnUse" color-interpolation-filters="sRGB">
            <feFlood flood-opacity="0" result="BackgroundImageFix" />
            <feGaussianBlur in="BackgroundImageFix" stdDeviation="20" />
            <feComposite in2="SourceAlpha" operator="in" result="effect1_backgroundBlur_745_15185" />
            <feBlend mode="normal" in="SourceGraphic" in2="effect1_backgroundBlur_745_15185" result="shape" />
        </filter>
        <filter id="filter2_b_745_15185" x="79.5312" y="40.8359" width="94.9062" height="94.8711" filterUnits="userSpaceOnUse" color-interpolation-filters="sRGB">
            <feFlood flood-opacity="0" result="BackgroundImageFix" />
            <feGaussianBlur in="BackgroundImageFix" stdDeviation="20" />
            <feComposite in2="SourceAlpha" operator="in" result="effect1_backgroundBlur_745_15185" />
            <feBlend mode="normal" in="SourceGraphic" in2="effect1_backgroundBlur_745_15185" result="shape" />
        </filter>
        <filter id="filter3_b_745_15185" x="41.9102" y="56.1963" width="94.9062" height="94.8711" filterUnits="userSpaceOnUse" color-interpolation-filters="sRGB">
            <feFlood flood-opacity="0" result="BackgroundImageFix" />
            <feGaussianBlur in="BackgroundImageFix" stdDeviation="20" />
            <feComposite in2="SourceAlpha" operator="in" result="effect1_backgroundBlur_745_15185" />
            <feBlend mode="normal" in="SourceGraphic" in2="effect1_backgroundBlur_745_15185" result="shape" />
        </filter>
        <filter id="filter4_b_745_15185" x="4.28516" y="38.2441" width="94.9062" height="94.8711" filterUnits="userSpaceOnUse" color-interpolation-filters="sRGB">
            <feFlood flood-opacity="0" result="BackgroundImageFix" />
            <feGaussianBlur in="BackgroundImageFix" stdDeviation="20" />
            <feComposite in2="SourceAlpha" operator="in" result="effect1_backgroundBlur_745_15185" />
            <feBlend mode="normal" in="SourceGraphic" in2="effect1_backgroundBlur_745_15185" result="shape" />
        </filter>
        <filter id="filter5_b_745_15185" x="58.9414" y="16.2988" width="94.9062" height="94.8711" filterUnits="userSpaceOnUse" color-interpolation-filters="sRGB">
            <feFlood flood-opacity="0" result="BackgroundImageFix" />
            <feGaussianBlur in="BackgroundImageFix" stdDeviation="20" />
            <feComposite in2="SourceAlpha" operator="in" result="effect1_backgroundBlur_745_15185" />
            <feBlend mode="normal" in="SourceGraphic" in2="effect1_backgroundBlur_745_15185" result="shape" />
        </filter>
        <filter id="filter6_b_745_15185" x="0.390625" y="-24.5977" width="131.102" height="130.987" filterUnits="userSpaceOnUse" color-interpolation-filters="sRGB">
            <feFlood flood-opacity="0" result="BackgroundImageFix" />
            <feGaussianBlur in="BackgroundImageFix" stdDeviation="20" />
            <feComposite in2="SourceAlpha" operator="in" result="effect1_backgroundBlur_745_15185" />
            <feBlend mode="normal" in="SourceGraphic" in2="effect1_backgroundBlur_745_15185" result="shape" />
        </filter>
        <clipPath id="clip0_745_15185">
            <rect width="174" height="171" fill="white" />
        </clipPath>
    </defs>
</svg>