<svg width="155" height="156" viewBox="0 0 155 156" fill="none" xmlns="http://www.w3.org/2000/svg">
    <g clip-path="url(#clip0_745_15435)">
        <path d="M128.009 85.0193C142.917 85.0193 155.002 72.9818 155.002 58.1327C155.002 43.2836 142.917 31.2461 128.009 31.2461C113.101 31.2461 101.016 43.2836 101.016 58.1327C101.016 72.9818 113.101 85.0193 128.009 85.0193Z" fill="#19FB9B" fill-opacity="0.2" />
        <path d="M55.4146 46.0913C68.1929 46.0913 78.5518 35.7734 78.5518 23.0457C78.5518 10.3179 68.1929 0 55.4146 0C42.6362 0 32.2773 10.3179 32.2773 23.0457C32.2773 35.7734 42.6362 46.0913 55.4146 46.0913Z" fill="#19FB9B" fill-opacity="0.2" />
        <path d="M38.562 156C59.8592 156 77.124 138.803 77.124 117.59C77.124 96.3772 59.8592 79.1807 38.562 79.1807C17.2648 79.1807 0 96.3772 0 117.59C0 138.803 17.2648 156 38.562 156Z" fill="#19FB9B" fill-opacity="0.2" />
        <path d="M20.7273 15.3252H105.564C107.685 15.3252 109.42 17.0536 109.42 19.1661V34.5299H16.8711V19.1661C16.8711 17.0536 18.6064 15.3252 20.7273 15.3252Z" fill="#06CE7A" />
        <path d="M20.7273 15.3252H97.8513V17.2457C97.8513 23.6024 92.6647 28.7685 86.2827 28.7685H16.8711V19.1661C16.8711 17.0536 18.6064 15.3252 20.7273 15.3252Z" fill="#00AA61" />
        <path d="M99.7601 26.8667C99.2588 26.8667 98.7768 26.6555 98.4105 26.3098C98.0441 25.9449 97.832 25.4456 97.832 24.9463C97.832 24.4469 98.0441 23.9476 98.4105 23.5827C99.1239 22.8722 100.416 22.8722 101.129 23.5827C101.495 23.9476 101.708 24.4469 101.708 24.9463C101.708 25.4456 101.495 25.9449 101.129 26.2906C100.763 26.6555 100.281 26.8667 99.7601 26.8667Z" fill="#00FF93" />
        <path d="M86.2656 24.9468C86.2656 23.8714 87.1333 23.0264 88.1937 23.0264C89.2735 23.0264 90.1218 23.8714 90.1218 24.9468C90.1218 26.0031 89.2735 26.8673 88.1937 26.8673C87.1333 26.8673 86.2656 26.0031 86.2656 24.9468Z" fill="#00FF93" />
        <path d="M76.6429 26.8667C76.1224 26.8667 75.6403 26.6555 75.274 26.3098C74.9077 25.9449 74.7148 25.4456 74.7148 24.9463C74.7148 24.4469 74.9077 23.9476 75.274 23.5827C75.9874 22.8722 77.2792 22.8722 77.9926 23.5827C78.359 23.9476 78.5518 24.4277 78.5518 24.9463C78.5518 25.4648 78.359 25.9449 77.9926 26.3098C77.6263 26.6555 77.1443 26.8667 76.6429 26.8667Z" fill="#00FF93" />
        <path d="M109.421 35.9702H16.8719C16.0813 35.9702 15.4258 35.3172 15.4258 34.5298V19.1661C15.4258 16.2469 17.7973 13.8848 20.7281 13.8848H105.564C108.495 13.8848 110.867 16.2469 110.867 19.1661V34.5298C110.867 35.3172 110.211 35.9702 109.421 35.9702ZM18.3179 33.0895H107.975V19.1661C107.975 17.8409 106.895 16.7655 105.564 16.7655H20.7281C19.3977 16.7655 18.3179 17.8409 18.3179 19.1661V33.0895Z" fill="#00FF93" />
        <path d="M16.8711 34.5303H109.42V134.395C109.42 136.507 107.685 138.236 105.564 138.236H20.7273C18.6064 138.236 16.8711 136.507 16.8711 134.395V34.5303Z" fill="#06CE7A" />
        <path d="M16.8711 34.5303H97.8513V124.793C97.8513 127.98 95.2677 130.554 92.067 130.554H16.8711V34.5303Z" fill="#00AA61" />
        <path d="M105.564 139.676H20.7281C17.7973 139.676 15.4258 137.314 15.4258 134.395V34.5302C15.4258 33.7428 16.0813 33.0898 16.8719 33.0898H109.421C110.211 33.0898 110.867 33.7428 110.867 34.5302V134.395C110.867 137.314 108.495 139.676 105.564 139.676ZM18.3179 35.9706V134.395C18.3179 135.72 19.3977 136.795 20.7281 136.795H105.564C106.895 136.795 107.975 135.72 107.975 134.395V35.9706H18.3179Z" fill="#00FF93" />
        <path d="M65.0729 91.2031H30.3671C27.7063 91.2031 25.5469 93.3541 25.5469 96.0043C25.5469 98.6546 27.7063 100.805 30.3671 100.805H65.0729C67.7337 100.805 69.8932 98.6546 69.8932 96.0043C69.8932 93.3541 67.7337 91.2031 65.0729 91.2031Z" fill="#00AA61" />
        <path d="M119.794 22.5272H117.134C116.343 22.5272 115.688 21.8742 115.688 21.0868C115.688 20.2994 116.343 19.6465 117.134 19.6465H119.794C120.585 19.6465 121.24 20.2994 121.24 21.0868C121.24 21.8742 120.585 22.5272 119.794 22.5272Z" fill="#00FF93" />
        <path d="M128.701 22.5272H126.04C125.249 22.5272 124.594 21.8742 124.594 21.0868C124.594 20.2994 125.249 19.6465 126.04 19.6465H128.701C129.491 19.6465 130.147 20.2994 130.147 21.0868C130.147 21.8742 129.491 22.5272 128.701 22.5272Z" fill="#00FF93" />
        <path d="M122.919 28.2888C122.128 28.2888 121.473 27.6358 121.473 26.8484V24.1982C121.473 23.4108 122.128 22.7578 122.919 22.7578C123.709 22.7578 124.365 23.4108 124.365 24.1982V26.8484C124.365 27.6358 123.709 28.2888 122.919 28.2888Z" fill="#00FF93" />
        <path d="M122.919 19.4353C122.128 19.4353 121.473 18.7823 121.473 17.9949V15.3447C121.473 14.5573 122.128 13.9043 122.919 13.9043C123.709 13.9043 124.365 14.5573 124.365 15.3447V17.9949C124.365 18.7823 123.709 19.4353 122.919 19.4353Z" fill="#00FF93" />
        <path d="M131.365 43.6717H128.704C127.913 43.6717 127.258 43.0188 127.258 42.2314C127.258 41.444 127.913 40.791 128.704 40.791H131.365C132.155 40.791 132.811 41.444 132.811 42.2314C132.811 43.0188 132.155 43.6717 131.365 43.6717Z" fill="#00FF93" />
        <path d="M140.271 43.6717H137.61C136.82 43.6717 136.164 43.0188 136.164 42.2314C136.164 41.444 136.82 40.791 137.61 40.791H140.271C141.061 40.791 141.717 41.444 141.717 42.2314C141.717 43.0188 141.061 43.6717 140.271 43.6717Z" fill="#00FF93" />
        <path d="M134.485 49.4323C133.695 49.4323 133.039 48.7794 133.039 47.992V45.3417C133.039 44.5543 133.695 43.9014 134.485 43.9014C135.276 43.9014 135.931 44.5543 135.931 45.3417V47.992C135.931 48.7794 135.276 49.4323 134.485 49.4323Z" fill="#00FF93" />
        <path d="M134.485 40.5603C133.695 40.5603 133.039 39.9073 133.039 39.1199V36.4697C133.039 35.6823 133.695 35.0293 134.485 35.0293C135.276 35.0293 135.931 35.6823 135.931 36.4697V39.1199C135.931 39.9073 135.276 40.5603 134.485 40.5603Z" fill="#00FF93" />
        <path d="M125.58 132.014H122.919C122.128 132.014 121.473 131.361 121.473 130.573C121.473 129.786 122.128 129.133 122.919 129.133H125.58C126.37 129.133 127.026 129.786 127.026 130.573C127.026 131.361 126.37 132.014 125.58 132.014Z" fill="#00FF93" />
        <path d="M134.486 132.014H131.825C131.034 132.014 130.379 131.361 130.379 130.573C130.379 129.786 131.034 129.133 131.825 129.133H134.486C135.276 129.133 135.932 129.786 135.932 130.573C135.932 131.361 135.276 132.014 134.486 132.014Z" fill="#00FF93" />
        <path d="M128.704 137.774C127.913 137.774 127.258 137.121 127.258 136.334V133.684C127.258 132.896 127.913 132.243 128.704 132.243C129.494 132.243 130.15 132.896 130.15 133.684V136.334C130.15 137.121 129.494 137.774 128.704 137.774Z" fill="#00FF93" />
        <path d="M128.704 128.902C127.913 128.902 127.258 128.249 127.258 127.462V124.811C127.258 124.024 127.913 123.371 128.704 123.371C129.494 123.371 130.15 124.024 130.15 124.811V127.462C130.15 128.249 129.494 128.902 128.704 128.902Z" fill="#00FF93" />
        <path d="M47.7201 80.6408C57.3038 80.6408 65.073 72.9024 65.073 63.3565C65.073 53.8107 57.3038 46.0723 47.7201 46.0723C38.1363 46.0723 30.3672 53.8107 30.3672 63.3565C30.3672 72.9024 38.1363 80.6408 47.7201 80.6408Z" fill="#00AA61" />
        <path d="M57.6122 49.1641C59.5789 51.968 60.7165 55.348 60.7165 59.0353C60.7165 68.58 52.9462 76.3195 43.3636 76.3195C39.6809 76.3195 36.2682 75.1673 33.4531 73.2276C36.5959 77.7023 41.8018 80.6406 47.7018 80.6406C57.2844 80.6406 65.0547 72.9011 65.0547 63.3564C65.0547 57.4797 62.1047 52.2944 57.6122 49.1641Z" fill="#06CE7A" />
        <path d="M47.7209 82.0811C37.3477 82.0811 28.9219 73.6886 28.9219 63.3564C28.9219 53.0243 37.3477 44.6318 47.7209 44.6318C58.094 44.6318 66.5198 53.0243 66.5198 63.3564C66.5198 73.6886 58.094 82.0811 47.7209 82.0811ZM47.7209 47.5125C38.948 47.5125 31.814 54.6183 31.814 63.3564C31.814 72.0946 38.948 79.2003 47.7209 79.2003C56.4937 79.2003 63.6277 72.0946 63.6277 63.3564C63.6277 54.6183 56.4937 47.5125 47.7209 47.5125Z" fill="#00FF93" />
        <path d="M47.7201 73.938C45.0208 73.938 42.6492 72.4401 41.6659 70.1163C41.3574 69.3865 41.7044 68.5415 42.4371 68.2342C43.1698 67.9269 44.0181 68.2726 44.3266 69.0024C44.8472 70.2315 46.2162 71.0573 47.7201 71.0573C49.706 71.0573 51.3257 69.6554 51.3257 67.9269C51.3257 65.8528 50.1109 64.7966 47.7008 64.7966C42.8999 64.7966 41.2031 61.6854 41.2031 58.7855C41.2031 55.4631 44.1146 52.7744 47.7008 52.7744C50.4002 52.7744 52.7717 54.2724 53.7551 56.5962C54.0636 57.3259 53.7165 58.1709 52.9838 58.4782C52.2511 58.7855 51.4028 58.4398 51.0943 57.71C50.5737 56.4809 49.2047 55.6551 47.7008 55.6551C45.7149 55.6551 44.0953 57.0571 44.0953 58.7855C44.0953 60.8596 45.31 61.9159 47.7008 61.9159C52.5018 61.9159 54.2178 65.027 54.2178 67.9269C54.2178 71.2494 51.3064 73.938 47.7201 73.938Z" fill="#00FF93" />
        <path d="M47.7039 55.6358C46.9134 55.6358 46.2578 54.9828 46.2578 54.1954V51.6796C46.2578 50.8922 46.9134 50.2393 47.7039 50.2393C48.4944 50.2393 49.15 50.8922 49.15 51.6796V54.1954C49.15 54.9828 48.4944 55.6358 47.7039 55.6358Z" fill="#00FF93" />
        <path d="M47.7039 76.4532C46.9134 76.4532 46.2578 75.8002 46.2578 75.0128V72.497C46.2578 71.7096 46.9134 71.0566 47.7039 71.0566C48.4944 71.0566 49.15 71.7096 49.15 72.497V75.0128C49.15 75.8002 48.4944 76.4532 47.7039 76.4532Z" fill="#00FF93" />
        <path d="M65.0729 91.2031H30.3671C27.7063 91.2031 25.5469 93.3541 25.5469 96.0043C25.5469 98.6546 27.7063 100.805 30.3671 100.805H65.0729C67.7337 100.805 69.8932 98.6546 69.8932 96.0043C69.8932 93.3541 67.7337 91.2031 65.0729 91.2031Z" fill="#00AA61" />
        <path d="M65.9418 91.2803C65.9997 91.5683 66.0382 91.8564 66.0382 92.1445C66.0382 94.7947 63.8788 96.9457 61.218 96.9457H26.5122C26.2037 96.9457 25.9145 96.9073 25.6445 96.8688C26.0494 99.0966 28.0161 100.806 30.3684 100.806H65.0742C67.735 100.806 69.8944 98.6549 69.8944 96.0046C69.8944 93.6425 68.1977 91.7028 65.9418 91.2995V91.2803Z" fill="#06CE7A" />
        <path d="M65.0737 102.226H30.3679C26.9166 102.226 24.1016 99.4223 24.1016 95.9847C24.1016 92.5471 26.9166 89.7432 30.3679 89.7432H65.0737C68.525 89.7432 71.34 92.5471 71.34 95.9847C71.34 99.4223 68.525 102.226 65.0737 102.226ZM30.3679 92.6239C28.5169 92.6239 26.9937 94.141 26.9937 95.9847C26.9937 97.8284 28.5169 99.3455 30.3679 99.3455H65.0737C66.9247 99.3455 68.4479 97.8284 68.4479 95.9847C68.4479 94.141 66.9247 92.6239 65.0737 92.6239H30.3679Z" fill="#00FF93" />
        <path d="M34.2266 91.2031H61.22V121.931C61.22 124.043 59.4847 125.772 57.3638 125.772H38.0828C35.9619 125.772 34.2266 124.043 34.2266 121.931V91.2031Z" fill="#06CE7A" />
        <path d="M34.2266 91.2031H55.4357V118.09C55.4357 119.146 54.568 120.01 53.5076 120.01H34.2266V91.2031Z" fill="#00AA61" />
        <path d="M57.3606 127.212H38.0796C35.1489 127.212 32.7773 124.85 32.7773 121.931V91.203C32.7773 90.4157 33.4329 89.7627 34.2234 89.7627H61.2168C62.0073 89.7627 62.6629 90.4157 62.6629 91.203V121.931C62.6629 124.85 60.2913 127.212 57.3606 127.212ZM35.6695 92.6434V121.931C35.6695 123.256 36.7492 124.331 38.0796 124.331H57.3606C58.691 124.331 59.7708 123.256 59.7708 121.931V92.6434H35.6695Z" fill="#00FF93" />
        <path d="M49.6297 121.45C48.8391 121.45 48.1836 120.797 48.1836 120.01V116.169C48.1836 115.381 48.8391 114.729 49.6297 114.729C50.4202 114.729 51.0757 115.381 51.0757 116.169V120.01C51.0757 120.797 50.4202 121.45 49.6297 121.45Z" fill="#00FF93" />
        <path d="M49.6297 111.829C48.8391 111.829 48.1836 111.176 48.1836 110.389V106.548C48.1836 105.76 48.8391 105.107 49.6297 105.107C50.4202 105.107 51.0757 105.76 51.0757 106.548V110.389C51.0757 111.176 50.4202 111.829 49.6297 111.829Z" fill="#00FF93" />
        <path d="M49.6297 102.227C48.8391 102.227 48.1836 101.574 48.1836 100.786V96.9452C48.1836 96.1578 48.8391 95.5049 49.6297 95.5049C50.4202 95.5049 51.0757 96.1578 51.0757 96.9452V100.786C51.0757 101.574 50.4202 102.227 49.6297 102.227Z" fill="#00FF93" />
        <path d="M41.9187 107.988C41.1282 107.988 40.4727 107.335 40.4727 106.548V96.9452C40.4727 96.1578 41.1282 95.5049 41.9187 95.5049C42.7093 95.5049 43.3648 96.1578 43.3648 96.9452V106.548C43.3648 107.335 42.7093 107.988 41.9187 107.988Z" fill="#00FF93" />
        <path d="M109.42 46.0527L78.5703 61.4165V84.4622C78.5703 115.209 109.42 122.872 109.42 122.872C109.42 122.872 140.27 115.19 140.27 84.4622V61.4165L109.42 46.0527Z" fill="#00AA61" />
        <path d="M130.631 56.6152V84.4621C130.631 107.508 113.278 117.59 104.602 121.201C107.494 122.391 109.422 122.891 109.422 122.891C109.422 122.891 140.271 115.209 140.271 84.4813V61.4356L130.631 56.6344V56.6152Z" fill="#06CE7A" />
        <path d="M109.421 124.312C109.305 124.312 109.189 124.312 109.074 124.273C108.746 124.197 77.125 115.958 77.125 84.462V61.4164C77.125 60.8786 77.4335 60.3793 77.9155 60.1296L108.765 44.7659C109.17 44.5546 109.652 44.5546 110.057 44.7659L140.907 60.1296C141.389 60.3793 141.697 60.8786 141.697 61.4164V84.462C141.697 115.939 110.076 124.197 109.748 124.273C109.633 124.293 109.517 124.312 109.401 124.312H109.421ZM80.0172 62.2998V84.4428C80.0172 112.29 105.912 120.394 109.421 121.374C112.93 120.394 138.824 112.27 138.824 84.4428V62.2998L109.421 47.6466L80.0172 62.2998Z" fill="#00FF93" />
        <path d="M109.42 56.5L88.2109 67.1778V84.4621C88.2109 88.7831 88.9629 92.4897 90.1583 95.6776L126.06 64.8925L109.401 56.5H109.42Z" fill="#00AA61" />
        <path d="M126.082 64.8925L109.423 56.5L103.292 59.592L114.205 65.0845C115.439 65.6991 115.631 67.3699 114.59 68.2533L88.7344 90.4156C89.0622 92.2976 89.5635 94.0452 90.1805 95.6584L126.082 64.8733V64.8925Z" fill="#06CE7A" />
        <path d="M90.1588 97.1182C90.0431 97.1182 89.9275 97.1182 89.7925 97.0798C89.3297 96.9645 88.9634 96.6381 88.7899 96.1963C87.4402 92.6243 86.7461 88.6873 86.7461 84.4815V67.1972C86.7461 66.6595 87.0546 66.1601 87.5366 65.9105L108.746 55.2327C109.151 55.0214 109.633 55.0214 110.057 55.2327L126.716 63.6251C127.14 63.8364 127.448 64.2589 127.506 64.739C127.564 65.2191 127.371 65.6992 127.005 66.0065L91.1036 96.7917C90.8337 97.0221 90.5059 97.1374 90.1588 97.1374V97.1182ZM89.6575 68.0806V84.4815C89.6575 87.5734 90.0624 90.4925 90.8529 93.2004L123.496 65.2191L109.421 58.1326L89.6575 68.0806Z" fill="#00FF93" />
        <path d="M95.1914 104.032C101.381 111.099 109.421 113.288 109.421 113.288C109.421 113.288 130.63 107.527 130.63 84.4812V73.6689L95.1914 104.032Z" fill="#00AA61" />
        <path d="M128.702 75.301V78.7003C128.702 96.1958 116.478 103.724 110.597 106.336C108.63 107.219 106.374 107.219 104.408 106.336C102.518 105.491 99.9731 104.147 97.3894 102.13L95.1914 104.012C101.381 111.079 109.421 113.269 109.421 113.269C109.421 113.269 130.63 107.507 130.63 84.4617V73.6494L128.702 75.301Z" fill="#06CE7A" />
        <path d="M109.42 114.709C109.286 114.709 109.17 114.709 109.035 114.652C108.688 114.556 100.493 112.27 94.1114 104.953C93.8607 104.665 93.7258 104.281 93.7643 103.897C93.7836 103.513 93.9764 103.167 94.2656 102.917L129.704 72.5548C130.128 72.1899 130.745 72.1131 131.247 72.3436C131.767 72.574 132.095 73.0925 132.095 73.6495V84.4617C132.095 108.333 110.037 114.594 109.825 114.671C109.71 114.709 109.575 114.728 109.44 114.728L109.42 114.709ZM97.2735 104.147C102.152 109.159 107.917 111.272 109.42 111.771C112.313 110.868 129.184 104.684 129.184 84.4617V76.7798L97.2735 104.127V104.147Z" fill="#00FF93" />
    </g>
    <defs>
        <clipPath id="clip0_745_15435">
            <rect width="155" height="156" fill="white" />
        </clipPath>
    </defs>
</svg>