<svg xmlns="http://www.w3.org/2000/svg" width="24" height="22" viewBox="0 0 24 22" fill="none">
  <path d="M11.1288 0.545574C11.5114 -0.13307 12.4886 -0.13307 12.8712 0.545575L15.9015 5.92199C16.0442 6.17517 16.29 6.35374 16.5749 6.41122L22.6246 7.63187C23.3882 7.78595 23.6902 8.7154 23.163 9.2889L18.9862 13.8324C18.7895 14.0463 18.6956 14.3353 18.729 14.624L19.4375 20.7548C19.527 21.5286 18.7363 22.1031 18.028 21.7789L12.4162 19.2105C12.1519 19.0895 11.8481 19.0895 11.5838 19.2105L5.97203 21.7789C5.26368 22.1031 4.47304 21.5286 4.56248 20.7548L5.27104 14.624C5.3044 14.3353 5.21052 14.0463 5.01384 13.8324L0.836993 9.2889C0.309767 8.7154 0.611762 7.78595 1.37539 7.63187L7.42511 6.41122C7.70999 6.35374 7.95578 6.17517 8.09848 5.92199L11.1288 0.545574Z" fill="url(#paint0_linear_745_15620)"/>
  <path d="M11.5644 0.791083C11.7557 0.451761 12.2443 0.451761 12.4356 0.791083L15.4659 6.1675C15.68 6.54727 16.0487 6.81512 16.476 6.90135L22.5257 8.122C22.9075 8.19904 23.0585 8.66376 22.7949 8.95051L18.6181 13.494C18.323 13.8149 18.1822 14.2483 18.2323 14.6814L18.9408 20.8122C18.9855 21.1991 18.5902 21.4863 18.236 21.3242L12.6242 18.7558C12.2279 18.5744 11.7721 18.5744 11.3758 18.7558L5.76395 21.3242C5.40977 21.4863 5.01446 21.1991 5.05918 20.8122L5.76773 14.6814C5.81778 14.2483 5.67696 13.8149 5.38193 13.494L1.20509 8.95051C0.941473 8.66376 1.09247 8.19904 1.47429 8.122L7.524 6.90135C7.95132 6.81512 8.32 6.54727 8.53405 6.1675L11.5644 0.791083Z" stroke="url(#paint1_linear_745_15620)" stroke-opacity="0.5"/>
  <defs>
    <linearGradient id="paint0_linear_745_15620" x1="12" y1="-1" x2="12" y2="25" gradientUnits="userSpaceOnUse">
      <stop stop-color="#FFE713"/>
      <stop offset="1" stop-color="#9F8F00" stop-opacity="0.9"/>
    </linearGradient>
    <linearGradient id="paint1_linear_745_15620" x1="12" y1="-1" x2="12" y2="25" gradientUnits="userSpaceOnUse">
      <stop stop-color="white"/>
      <stop offset="1" stop-color="white" stop-opacity="0"/>
    </linearGradient>
  </defs>
</svg>
