<svg width="20" height="17" viewBox="0 0 20 17" fill="none" xmlns="http://www.w3.org/2000/svg">
  <path d="M1.22615 7.40344C1.22615 7.40344 10.0717 3.67164 13.1395 2.35762C14.3155 1.83202 18.3036 0.150079 18.3036 0.150079C18.3036 0.150079 20.1443 -0.585769 19.9909 1.20129C19.9398 1.93714 19.5307 4.51261 19.1217 7.29832C18.5081 11.2404 17.8435 15.5503 17.8435 15.5503C17.8435 15.5503 17.7412 16.7592 16.872 16.9695C16.0028 17.1797 14.5711 16.2336 14.3155 16.0234C14.111 15.8657 10.4807 13.5005 9.15133 12.3441C8.79341 12.0288 8.38437 11.398 9.20246 10.6622C11.0431 8.9277 13.2417 6.77271 14.5711 5.40614C15.1847 4.77541 15.7982 3.30371 13.2417 5.09077C9.6115 7.66624 6.03238 10.084 6.03238 10.084C6.03238 10.084 5.2143 10.6096 3.6804 10.1366C2.14649 9.66354 0.356936 9.03282 0.356936 9.03282C0.356936 9.03282 -0.870188 8.24441 1.22615 7.40344Z" fill="white" />
</svg>
