<svg width="162" height="156" viewBox="0 0 162 156" fill="none" xmlns="http://www.w3.org/2000/svg">
    <g clip-path="url(#clip0_745_15538)">
        <path d="M132.058 152.411C148.594 152.411 161.998 139.096 161.998 122.672C161.998 106.248 148.594 92.9336 132.058 92.9336C115.522 92.9336 102.117 106.248 102.117 122.672C102.117 139.096 115.522 152.411 132.058 152.411Z" fill="#00FF93" fill-opacity="0.2" />
        <path d="M100.515 50.9804C114.688 50.9804 126.178 39.568 126.178 25.4902C126.178 11.4123 114.688 0 100.515 0C86.3414 0 74.8516 11.4123 74.8516 25.4902C74.8516 39.568 86.3414 50.9804 100.515 50.9804Z" fill="#00FF93" fill-opacity="0.2" />
        <path d="M42.7723 156C66.3948 156 85.5446 136.979 85.5446 113.516C85.5446 90.0528 66.3948 71.0322 42.7723 71.0322C19.1498 71.0322 0 90.0528 0 113.516C0 136.979 19.1498 156 42.7723 156Z" fill="#00FF93" fill-opacity="0.2" />
        <path d="M91.9593 144.444C58.8963 144.444 32.0781 117.807 32.0781 84.9674C32.0781 52.1275 58.8963 25.4902 91.9593 25.4902C125.022 25.4902 151.841 52.1275 151.841 84.9674C151.841 117.807 125.022 144.444 91.9593 144.444Z" fill="#00AA61" />
        <path d="M91.9626 144.444C125.026 144.444 151.844 117.807 151.844 84.9671C151.844 74.155 148.935 64.0439 143.845 55.2922C142.947 55.2498 142.049 55.2285 141.151 55.2285C108.088 55.2285 81.2695 81.8658 81.2695 114.706C81.2695 125.518 84.178 135.65 89.268 144.38C90.1662 144.423 91.0644 144.444 91.9626 144.444Z" fill="#06CE7A" />
        <path d="M91.9617 146.037C58.0647 146.037 30.4766 118.635 30.4766 84.9667C30.4766 51.2984 58.0647 23.8965 91.9617 23.8965C125.859 23.8965 153.447 51.2984 153.447 84.9667C153.447 118.635 125.859 146.037 91.9617 146.037ZM91.9617 27.0828C59.8183 27.0828 33.6845 53.0403 33.6845 84.9667C33.6845 116.893 59.8183 142.851 91.9617 142.851C124.105 142.851 150.239 116.893 150.239 84.9667C150.239 53.0403 124.105 27.0828 91.9617 27.0828Z" fill="#00FF93" />
        <path d="M97.622 81.4219L88.3672 90.6143L97.622 99.8066L106.877 90.6143L97.622 81.4219Z" fill="#00AA61" />
        <path d="M99.876 104.743C99.4696 104.743 99.0633 104.595 98.7425 104.276L86.1033 91.7222C85.8039 91.4248 85.6328 91.0212 85.6328 90.5964C85.6328 90.1715 85.8039 89.7679 86.1033 89.4705L96.497 79.147C96.7964 78.8496 97.2027 78.6797 97.6304 78.6797C98.0582 78.6797 98.4645 78.8496 98.7639 79.147L111.403 91.7009C112.023 92.3169 112.023 93.3365 111.403 93.9526L101.009 104.276C100.689 104.595 100.282 104.743 99.876 104.743ZM89.5037 90.5964L99.876 100.877L108.003 92.8055L97.6518 82.5032L89.5251 90.5751L89.5037 90.5964Z" fill="#00FF93" />
        <path d="M110.757 88.4421L95.4531 103.643L110.288 118.377L125.592 103.177L110.757 88.4421Z" fill="#00AA61" />
        <path d="M100.027 108.19L106.908 101.356C108.571 99.704 111.293 99.704 112.957 101.356L120.2 108.551L110.295 118.389L100.027 108.19Z" fill="#06CE7A" />
        <path d="M110.288 119.974C109.881 119.974 109.475 119.825 109.154 119.507L94.3338 104.786C94.0344 104.489 93.8633 104.085 93.8633 103.66C93.8633 103.235 94.0344 102.832 94.3338 102.534L109.646 87.3253C110.266 86.7093 111.293 86.7093 111.913 87.3253L126.734 102.046C127.033 102.343 127.204 102.747 127.204 103.172C127.204 103.597 127.033 104 126.734 104.298L111.421 119.507C111.101 119.825 110.694 119.974 110.288 119.974ZM97.7342 103.66L110.288 116.129L123.333 103.172L110.78 90.7027L97.7342 103.66Z" fill="#00FF93" />
        <path d="M128.339 116.022L123.228 121.099C120.405 123.903 115.828 123.903 113.026 121.099L110.289 118.38L125.602 103.171L128.339 105.89C131.162 108.694 131.162 113.218 128.339 116.022Z" fill="#00AA61" />
        <path d="M126.352 114.663L128.042 116.341L128.362 116.022C131.185 113.218 131.185 108.673 128.362 105.89L125.625 103.171L110.312 118.38L113.05 121.099C113.349 121.396 113.67 121.651 114.012 121.885L121.262 114.684C122.674 113.282 124.962 113.282 126.373 114.684L126.352 114.663Z" fill="#00AA61" />
        <path d="M123.248 121.099L128.039 116.341L126.349 114.663C124.938 113.261 122.65 113.261 121.238 114.663L113.988 121.864C116.811 123.839 120.725 123.584 123.227 121.078L123.248 121.099Z" fill="#06CE7A" />
        <path d="M118.139 124.795C115.872 124.795 113.626 123.945 111.894 122.225L109.157 119.506C108.536 118.89 108.536 117.87 109.157 117.254L124.469 102.045C125.089 101.429 126.116 101.429 126.736 102.045L129.473 104.764C132.917 108.184 132.917 113.749 129.473 117.148L124.362 122.225C122.651 123.924 120.384 124.795 118.117 124.795H118.139ZM112.557 118.38L114.161 119.973C116.342 122.14 119.914 122.14 122.095 119.973L127.206 114.896C129.388 112.73 129.388 109.182 127.206 107.016L125.602 105.422L112.557 118.38Z" fill="#00FF93" />
        <path d="M61.8899 101.705C87.8038 101.705 108.811 80.8397 108.811 55.1007C108.811 29.3617 87.8038 8.49609 61.8899 8.49609C35.9761 8.49609 14.9688 29.3617 14.9688 55.1007C14.9688 80.8397 35.9761 101.705 61.8899 101.705Z" fill="#00AA61" />
        <path d="M95.0625 22.1335C88.4114 15.5273 80.2419 11.3427 71.6874 9.53711C63.1329 11.3427 54.9634 15.5273 48.3123 22.1335C29.9844 40.3378 29.9844 69.8427 48.3123 88.0469C54.9634 94.6531 63.1329 98.8378 71.6874 100.643C80.2419 98.8378 88.4114 94.6531 95.0625 88.0469C113.39 69.8427 113.39 40.3378 95.0625 22.1335Z" fill="#06CE7A" />
        <path d="M61.8905 22.9834C79.748 22.9834 94.2264 37.3641 94.2264 55.101C94.2264 72.838 79.748 87.2187 61.8905 87.2187C44.0331 87.2187 29.5547 72.838 29.5547 55.101C29.5547 37.3641 44.0331 22.9834 61.8905 22.9834Z" fill="#00AA61" />
        <path d="M94.2289 55.1009C94.2289 40.699 84.6692 28.5062 71.5168 24.4277C58.3643 28.5062 48.8047 40.699 48.8047 55.1009C48.8047 69.5029 58.3643 81.6957 71.5168 85.7741C84.6692 81.6957 94.2289 69.5029 94.2289 55.1009Z" fill="#06CE7A" />
        <path d="M61.8929 88.8122C43.1801 88.8122 27.9531 73.688 27.9531 55.1014C27.9531 36.5148 43.1801 21.3906 61.8929 21.3906C80.6058 21.3906 95.8327 36.5148 95.8327 55.1014C95.8327 73.688 80.6058 88.8122 61.8929 88.8122ZM61.8929 24.5769C44.9551 24.5769 31.161 38.2779 31.161 55.1014C31.161 71.9249 44.9551 85.6259 61.8929 85.6259C78.8308 85.6259 92.6248 71.9249 92.6248 55.1014C92.6248 38.2779 78.8308 24.5769 61.8929 24.5769Z" fill="#00FF93" />
        <path d="M36.229 56.6941C37.1148 56.6941 37.8329 55.9808 37.8329 55.1009C37.8329 54.2211 37.1148 53.5078 36.229 53.5078C35.3431 53.5078 34.625 54.2211 34.625 55.1009C34.625 55.9808 35.3431 56.6941 36.229 56.6941Z" fill="#00FF93" />
        <path d="M87.5571 56.6941C88.4429 56.6941 89.161 55.9808 89.161 55.1009C89.161 54.2211 88.4429 53.5078 87.5571 53.5078C86.6712 53.5078 85.9531 54.2211 85.9531 55.1009C85.9531 55.9808 86.6712 56.6941 87.5571 56.6941Z" fill="#00FF93" />
        <path d="M61.893 82.1843C62.7789 82.1843 63.497 81.471 63.497 80.5912C63.497 79.7113 62.7789 78.998 61.893 78.998C61.0072 78.998 60.2891 79.7113 60.2891 80.5912C60.2891 81.471 61.0072 82.1843 61.893 82.1843Z" fill="#00FF93" />
        <path d="M61.893 31.2039C62.7789 31.2039 63.497 30.4906 63.497 29.6107C63.497 28.7308 62.7789 28.0176 61.893 28.0176C61.0072 28.0176 60.2891 28.7308 60.2891 29.6107C60.2891 30.4906 61.0072 31.2039 61.893 31.2039Z" fill="#00FF93" />
        <path d="M47.6702 76.3643C48.1193 75.5996 49.1031 75.3447 49.8516 75.7908C50.6215 76.2369 50.8781 77.214 50.429 77.9575C49.9799 78.7222 48.9961 78.9771 48.2476 78.5522C47.4777 78.1061 47.2211 77.129 47.6702 76.3643Z" fill="#00FF93" />
        <path d="M73.3343 32.2237C73.7834 31.459 74.7671 31.2041 75.5157 31.6502C76.2856 32.0962 76.5422 33.0734 76.0931 33.8168C75.644 34.5603 74.6602 34.8364 73.9117 34.3904C73.1418 33.9443 72.8852 32.9672 73.3343 32.2237Z" fill="#00FF93" />
        <path d="M83.3219 69.227C82.552 68.781 82.2953 67.8038 82.7444 67.0391C83.1935 66.2744 84.1773 66.0195 84.9258 66.4656C85.6957 66.9117 85.9524 67.8888 85.5032 68.6323C85.0541 69.397 84.0704 69.6519 83.3219 69.227Z" fill="#00FF93" />
        <path d="M38.8609 43.7151C38.091 43.269 37.8344 42.2919 38.2835 41.5485C38.7326 40.7837 39.7164 40.5288 40.4649 40.9537C41.2348 41.3998 41.4914 42.3769 41.0423 43.1416C40.5932 43.9063 39.6094 44.1612 38.8609 43.7151Z" fill="#00FF93" />
        <path d="M73.3335 77.9577C72.8844 77.193 73.1624 76.2158 73.9109 75.791C74.6808 75.3449 75.6646 75.6211 76.0923 76.3645C76.5414 77.1292 76.2634 78.1064 75.5149 78.5524C74.745 78.9985 73.7612 78.7224 73.3335 77.9577Z" fill="#00FF93" />
        <path d="M47.6694 33.8171C47.2203 33.0523 47.4983 32.0752 48.2468 31.6504C49.0167 31.2043 50.0005 31.4805 50.4282 32.2239C50.856 32.9674 50.5993 33.9657 49.8508 34.3906C49.0809 34.8367 48.0971 34.5605 47.6694 33.8171Z" fill="#00FF93" />
        <path d="M84.925 43.7158C84.1551 44.1618 83.1714 43.8857 82.7436 43.1422C82.2945 42.3775 82.5726 41.4004 83.3211 40.9543C84.091 40.5083 85.0747 40.7844 85.5025 41.5491C85.9516 42.3138 85.6735 43.2909 84.925 43.7158Z" fill="#00FF93" />
        <path d="M40.4641 69.2263C39.6942 69.6724 38.7104 69.3962 38.2827 68.6315C37.8336 67.8668 38.1116 66.8897 38.8601 66.4648C39.63 66.0188 40.6138 66.2949 41.0415 67.0384C41.4906 67.8031 41.2126 68.7802 40.4641 69.2263Z" fill="#00FF93" />
        <path d="M61.8923 103.277C35.1383 103.277 13.3672 81.6533 13.3672 55.0798C13.3672 28.5063 35.1383 6.90332 61.8923 6.90332C88.6464 6.90332 110.417 28.5275 110.417 55.101C110.417 81.6746 88.6464 103.299 61.8923 103.299V103.277ZM61.8923 10.0684C36.9133 10.0684 16.5751 30.2481 16.5751 55.0798C16.5751 79.9115 36.8919 100.091 61.8923 100.091C86.8927 100.091 107.21 79.9115 107.21 55.0798C107.21 30.2481 86.8714 10.0896 61.8923 10.0896V10.0684Z" fill="#00FF93" />
        <path d="M61.8708 70.0125C58.1282 70.0125 54.8561 67.952 53.4874 64.7445C53.1452 63.9373 53.5302 63.0027 54.3428 62.6628C55.1555 62.323 56.0965 62.7053 56.4387 63.5125C57.2727 65.488 59.4541 66.8262 61.8708 66.8262C65.0573 66.8262 67.645 64.5533 67.645 61.7494C67.645 59.4341 66.6399 56.6726 61.8494 56.6726C55.2197 56.6726 52.8672 52.403 52.8672 48.4096C52.8672 43.8638 56.9092 40.1465 61.8494 40.1465C65.5919 40.1465 68.864 42.2069 70.2327 45.4145C70.5749 46.2216 70.19 47.1563 69.3773 47.4962C68.5646 47.836 67.6236 47.4537 67.2814 46.6465C66.4474 44.671 64.266 43.3328 61.8708 43.3328C58.6842 43.3328 56.0965 45.6056 56.0965 48.4096C56.0965 50.7249 57.1016 53.4864 61.8708 53.4864C68.5218 53.4864 70.8743 57.756 70.8743 61.7494C70.8743 66.2952 66.8323 70.0125 61.8921 70.0125H61.8708Z" fill="#00FF93" />
        <path d="M61.8305 43.3543C60.9537 43.3543 60.2266 42.6321 60.2266 41.7611V38.0863C60.2266 37.2154 60.9537 36.4932 61.8305 36.4932C62.7074 36.4932 63.4345 37.2154 63.4345 38.0863V41.7611C63.4345 42.6321 62.7074 43.3543 61.8305 43.3543Z" fill="#00FF93" />
        <path d="M61.8305 73.6873C60.9537 73.6873 60.2266 72.9651 60.2266 72.0941V68.4193C60.2266 67.5484 60.9537 66.8262 61.8305 66.8262C62.7074 66.8262 63.4345 67.5484 63.4345 68.4193V72.0941C63.4345 72.9651 62.7074 73.6873 61.8305 73.6873Z" fill="#00FF93" />
        <path d="M122.006 70.0978C119.226 70.0978 116.788 68.5684 115.783 66.1681C115.441 65.3609 115.826 64.4262 116.638 64.0864C117.451 63.7465 118.392 64.1289 118.734 64.936C119.226 66.1256 120.552 66.9115 122.006 66.9115C123.931 66.9115 125.471 65.5733 125.471 63.9164C125.471 61.9409 124.295 60.9213 121.985 60.9213C117.066 60.9213 115.312 57.7351 115.312 54.74C115.312 51.3413 118.307 48.5586 121.985 48.5586C124.765 48.5586 127.203 50.088 128.208 52.4883C128.551 53.2955 128.166 54.2302 127.353 54.57C126.54 54.9099 125.599 54.5275 125.257 53.7204C124.765 52.5308 123.439 51.7449 121.985 51.7449C120.06 51.7449 118.52 53.0831 118.52 54.74C118.52 56.7579 119.654 57.7351 121.985 57.7351C126.048 57.7351 128.679 60.1566 128.679 63.9164C128.679 67.3151 125.685 70.0978 122.006 70.0978Z" fill="#00FF93" />
        <path d="M121.987 51.7658C121.11 51.7658 120.383 51.0436 120.383 50.1727V47.6449C120.383 46.774 121.11 46.0518 121.987 46.0518C122.864 46.0518 123.591 46.774 123.591 47.6449V50.1727C123.591 51.0436 122.864 51.7658 121.987 51.7658Z" fill="#00FF93" />
        <path d="M121.987 72.6252C121.11 72.6252 120.383 71.903 120.383 71.032V68.5043C120.383 67.6334 121.11 66.9111 121.987 66.9111C122.864 66.9111 123.591 67.6334 123.591 68.5043V71.032C123.591 71.903 122.864 72.6252 121.987 72.6252Z" fill="#00FF93" />
        <path d="M136.487 92.9328C133.707 92.9328 131.269 91.4034 130.263 89.003C129.921 88.1958 130.306 87.2612 131.119 86.9213C131.932 86.5815 132.873 86.9638 133.215 87.771C133.707 88.9393 135.033 89.7465 136.487 89.7465C138.412 89.7465 139.951 88.4083 139.951 86.7514C139.951 84.7759 138.775 83.7563 136.465 83.7563C131.547 83.7563 129.793 80.57 129.793 77.5749C129.793 74.1762 132.787 71.3936 136.465 71.3936C139.246 71.3936 141.684 72.923 142.689 75.3233C143.031 76.1305 142.646 77.0651 141.833 77.405C141.021 77.7449 140.08 77.3625 139.738 76.5553C139.246 75.387 137.92 74.5798 136.465 74.5798C134.562 74.5798 133.001 75.9181 133.001 77.5749C133.001 79.5929 134.134 80.57 136.465 80.57C140.529 80.57 143.159 82.9916 143.159 86.7514C143.159 90.1501 140.165 92.9328 136.487 92.9328Z" fill="#00FF93" />
        <path d="M136.467 74.6008C135.59 74.6008 134.863 73.8785 134.863 73.0076V70.4799C134.863 69.6089 135.59 68.8867 136.467 68.8867C137.344 68.8867 138.071 69.6089 138.071 70.4799V73.0076C138.071 73.8785 137.344 74.6008 136.467 74.6008Z" fill="#00FF93" />
        <path d="M136.467 95.4601C135.59 95.4601 134.863 94.7379 134.863 93.867V91.3392C134.863 90.4683 135.59 89.7461 136.467 89.7461C137.344 89.7461 138.071 90.4683 138.071 91.3392V93.867C138.071 94.7379 137.344 95.4601 136.467 95.4601Z" fill="#00FF93" />
        <path d="M94.229 136.861C91.4488 136.861 89.0108 135.331 88.0057 132.931C87.6635 132.124 88.0484 131.189 88.8611 130.849C89.6738 130.509 90.6148 130.892 90.9569 131.699C91.4488 132.867 92.7748 133.674 94.229 133.674C96.1538 133.674 97.6936 132.336 97.6936 130.679C97.6936 128.704 96.5173 127.684 94.2076 127.684C89.2888 127.684 87.5352 124.498 87.5352 121.503C87.5352 118.104 90.5292 115.321 94.2076 115.321C96.9878 115.321 99.4258 116.851 100.431 119.251C100.773 120.058 100.388 120.993 99.5756 121.333C98.7629 121.673 97.8219 121.29 97.4797 120.483C96.9878 119.315 95.6619 118.508 94.2076 118.508C92.2829 118.508 90.7431 119.846 90.7431 121.503C90.7431 123.521 91.8765 124.498 94.2076 124.498C98.271 124.498 100.901 126.919 100.901 130.679C100.901 134.078 97.9074 136.861 94.229 136.861Z" fill="#00FF93" />
        <path d="M94.229 118.55C93.3521 118.55 92.625 117.828 92.625 116.957V114.429C92.625 113.558 93.3521 112.836 94.229 112.836C95.1058 112.836 95.8329 113.558 95.8329 114.429V116.957C95.8329 117.828 95.1058 118.55 94.229 118.55Z" fill="#00FF93" />
        <path d="M94.229 139.389C93.3521 139.389 92.625 138.667 92.625 137.796V135.268C92.625 134.397 93.3521 133.675 94.229 133.675C95.1058 133.675 95.8329 134.397 95.8329 135.268V137.796C95.8329 138.667 95.1058 139.389 94.229 139.389Z" fill="#00FF93" />
        <path d="M70.7017 130.488C67.9215 130.488 65.4835 128.959 64.4783 126.559C64.1361 125.752 64.5211 124.817 65.3338 124.477C66.1464 124.137 67.0874 124.519 67.4296 125.327C67.9215 126.516 69.2474 127.302 70.7017 127.302C72.605 127.302 74.1662 125.964 74.1662 124.307C74.1662 122.332 72.99 121.312 70.6803 121.312C65.7615 121.312 64.0078 118.126 64.0078 115.131C64.0078 111.732 67.0019 108.949 70.6803 108.949C73.4605 108.949 75.8985 110.479 76.9037 112.879C77.2458 113.686 76.8609 114.621 76.0482 114.961C75.2355 115.301 74.2945 114.918 73.9524 114.111C73.4605 112.921 72.1345 112.135 70.6803 112.135C68.7769 112.135 67.2157 113.474 67.2157 115.131C67.2157 117.149 68.3492 118.126 70.6803 118.126C74.7437 118.126 77.3741 120.547 77.3741 124.307C77.3741 127.706 74.3801 130.488 70.7017 130.488Z" fill="#00FF93" />
        <path d="M70.6821 112.156C69.8053 112.156 69.0781 111.434 69.0781 110.563V108.036C69.0781 107.165 69.8053 106.442 70.6821 106.442C71.5589 106.442 72.286 107.165 72.286 108.036V110.563C72.286 111.434 71.5589 112.156 70.6821 112.156Z" fill="#00FF93" />
        <path d="M70.6821 133.016C69.8053 133.016 69.0781 132.294 69.0781 131.423V128.895C69.0781 128.024 69.8053 127.302 70.6821 127.302C71.5589 127.302 72.286 128.024 72.286 128.895V131.423C72.286 132.294 71.5589 133.016 70.6821 133.016Z" fill="#00FF93" />
        <path d="M107.058 16.9928C109.421 16.9928 111.336 15.0908 111.336 12.7445C111.336 10.3982 109.421 8.49609 107.058 8.49609C104.696 8.49609 102.781 10.3982 102.781 12.7445C102.781 15.0908 104.696 16.9928 107.058 16.9928Z" fill="#00AA61" />
        <path d="M107.061 18.5863C103.81 18.5863 101.18 15.9736 101.18 12.7448C101.18 9.51607 103.81 6.90332 107.061 6.90332C110.312 6.90332 112.942 9.51607 112.942 12.7448C112.942 15.9736 110.312 18.5863 107.061 18.5863ZM107.061 10.0896C105.585 10.0896 104.388 11.2791 104.388 12.7448C104.388 14.2105 105.585 15.4001 107.061 15.4001C108.537 15.4001 109.734 14.2105 109.734 12.7448C109.734 11.2791 108.537 10.0896 107.061 10.0896Z" fill="#00FF93" />
        <path d="M135.676 23.3659C138.038 23.3659 139.953 21.4638 139.953 19.1175C139.953 16.7712 138.038 14.8691 135.676 14.8691C133.313 14.8691 131.398 16.7712 131.398 19.1175C131.398 21.4638 133.313 23.3659 135.676 23.3659Z" fill="#00AA61" />
        <path d="M135.674 24.9584C132.423 24.9584 129.793 22.3457 129.793 19.1169C129.793 15.8881 132.423 13.2754 135.674 13.2754C138.925 13.2754 141.555 15.8881 141.555 19.1169C141.555 22.3457 138.925 24.9584 135.674 24.9584ZM135.674 16.4617C134.199 16.4617 133.001 17.6512 133.001 19.1169C133.001 20.5826 134.199 21.7721 135.674 21.7721C137.15 21.7721 138.347 20.5826 138.347 19.1169C138.347 17.6512 137.15 16.4617 135.674 16.4617Z" fill="#00FF93" />
        <path d="M147.566 41.8249C149.929 41.8249 151.844 39.9228 151.844 37.5765C151.844 35.2302 149.929 33.3281 147.566 33.3281C145.204 33.3281 143.289 35.2302 143.289 37.5765C143.289 39.9228 145.204 41.8249 147.566 41.8249Z" fill="#00AA61" />
        <path d="M147.565 43.3969C144.314 43.3969 141.684 40.7841 141.684 37.5554C141.684 34.3266 144.314 31.7139 147.565 31.7139C150.815 31.7139 153.446 34.3266 153.446 37.5554C153.446 40.7841 150.815 43.3969 147.565 43.3969ZM147.565 34.9001C146.089 34.9001 144.892 36.0897 144.892 37.5554C144.892 39.0211 146.089 40.2106 147.565 40.2106C149.04 40.2106 150.238 39.0211 150.238 37.5554C150.238 36.0897 149.04 34.9001 147.565 34.9001Z" fill="#00FF93" />
        <path d="M147.566 138.072C149.929 138.072 151.844 136.17 151.844 133.824C151.844 131.477 149.929 129.575 147.566 129.575C145.204 129.575 143.289 131.477 143.289 133.824C143.289 136.17 145.204 138.072 147.566 138.072Z" fill="#00AA61" />
        <path d="M147.565 139.664C144.314 139.664 141.684 137.052 141.684 133.823C141.684 130.594 144.314 127.981 147.565 127.981C150.815 127.981 153.446 130.594 153.446 133.823C153.446 137.052 150.815 139.664 147.565 139.664ZM147.565 131.168C146.089 131.168 144.892 132.357 144.892 133.823C144.892 135.289 146.089 136.478 147.565 136.478C149.04 136.478 150.238 135.289 150.238 133.823C150.238 132.357 149.04 131.168 147.565 131.168Z" fill="#00FF93" />
        <path d="M23.5272 109.31C25.8895 109.31 27.8045 107.408 27.8045 105.062C27.8045 102.716 25.8895 100.813 23.5272 100.813C21.165 100.813 19.25 102.716 19.25 105.062C19.25 107.408 21.165 109.31 23.5272 109.31Z" fill="#00AA61" />
        <path d="M23.5257 110.904C20.275 110.904 17.6445 108.291 17.6445 105.062C17.6445 101.833 20.275 99.2207 23.5257 99.2207C26.7764 99.2207 29.4069 101.833 29.4069 105.062C29.4069 108.291 26.7764 110.904 23.5257 110.904ZM23.5257 102.407C22.0501 102.407 20.8525 103.597 20.8525 105.062C20.8525 106.528 22.0501 107.717 23.5257 107.717C25.0014 107.717 26.199 106.528 26.199 105.062C26.199 103.597 25.0014 102.407 23.5257 102.407Z" fill="#00FF93" />
        <path d="M35.3085 144.444C37.6707 144.444 39.5857 142.542 39.5857 140.196C39.5857 137.849 37.6707 135.947 35.3085 135.947C32.9462 135.947 31.0312 137.849 31.0312 140.196C31.0312 142.542 32.9462 144.444 35.3085 144.444Z" fill="#00AA61" />
        <path d="M35.3109 146.037C32.0602 146.037 29.4297 143.425 29.4297 140.196C29.4297 136.967 32.0602 134.354 35.3109 134.354C38.5616 134.354 41.1921 136.967 41.1921 140.196C41.1921 143.425 38.5616 146.037 35.3109 146.037ZM35.3109 137.541C33.8352 137.541 32.6376 138.73 32.6376 140.196C32.6376 141.662 33.8352 142.851 35.3109 142.851C36.7865 142.851 37.9841 141.662 37.9841 140.196C37.9841 138.73 36.7865 137.541 35.3109 137.541Z" fill="#00FF93" />
        <path d="M20.3397 131.699C22.702 131.699 24.617 129.797 24.617 127.451C24.617 125.104 22.702 123.202 20.3397 123.202C17.9775 123.202 16.0625 125.104 16.0625 127.451C16.0625 129.797 17.9775 131.699 20.3397 131.699Z" fill="#00AA61" />
        <path d="M20.3382 133.292C17.0875 133.292 14.457 130.68 14.457 127.451C14.457 124.222 17.0875 121.609 20.3382 121.609C23.5889 121.609 26.2194 124.222 26.2194 127.451C26.2194 130.68 23.5889 133.292 20.3382 133.292ZM20.3382 124.796C18.8626 124.796 17.665 125.985 17.665 127.451C17.665 128.917 18.8626 130.106 20.3382 130.106C21.8139 130.106 23.0115 128.917 23.0115 127.451C23.0115 125.985 21.8139 124.796 20.3382 124.796Z" fill="#00FF93" />
    </g>
    <defs>
        <clipPath id="clip0_745_15538">
            <rect width="162" height="156" fill="white" />
        </clipPath>
    </defs>
</svg>