<svg width="160" height="160" viewBox="0 0 160 160" fill="none" xmlns="http://www.w3.org/2000/svg">
    <g clip-path="url(#clip0_745_15320_owl)">
        <path d="M28.0878 86.2159C43.6002 86.2159 56.1756 73.5867 56.1756 58.0078C56.1756 42.429 43.6002 29.7998 28.0878 29.7998C12.5753 29.7998 0 42.429 0 58.0078C0 73.5867 12.5753 86.2159 28.0878 86.2159Z" fill="#19FB9B" fill-opacity="0.2" />
        <path d="M120.376 48.3566C133.672 48.3566 144.451 37.5316 144.451 24.1783C144.451 10.825 133.672 0 120.376 0C107.08 0 96.3008 10.825 96.3008 24.1783C96.3008 37.5316 107.08 48.3566 120.376 48.3566Z" fill="#19FB9B" fill-opacity="0.2" />
        <path d="M119.875 160C142.036 160 160.001 141.958 160.001 119.702C160.001 97.4469 142.036 79.4053 119.875 79.4053C97.7148 79.4053 79.75 97.4469 79.75 119.702C79.75 141.958 97.7148 160 119.875 160Z" fill="#19FB9B" fill-opacity="0.2" />
        <path d="M86.2667 14.1035C67.4279 14.1035 52.1602 29.4366 52.1602 48.3561V52.3858C52.1602 80.2111 74.6103 102.757 102.317 102.757H120.373V48.3561C120.373 29.4366 105.106 14.1035 86.2667 14.1035Z" fill="#00B467" />
        <path d="M108.436 22.4448C105.547 21.4979 102.497 20.9941 99.3271 20.9941C82.1735 20.9941 68.25 35.8034 68.25 54.0983C68.25 80.9765 88.7139 102.777 113.953 102.777H120.373V50.0283C120.373 38.9868 115.738 29.114 108.436 22.465V22.4448Z" fill="#1FD086" />
        <path d="M120.374 104.269H102.318C73.8287 104.269 50.6562 80.9973 50.6562 52.3862V48.3565C50.6562 28.6311 66.6262 12.5928 86.2675 12.5928C105.909 12.5928 121.879 28.6311 121.879 48.3565V102.758C121.879 103.584 121.197 104.269 120.374 104.269ZM86.2675 15.6151C68.2914 15.6151 53.6657 30.3034 53.6657 48.3565V52.3862C53.6657 79.3249 75.4939 101.247 102.318 101.247H118.869V48.3565C118.869 30.3034 104.244 15.6151 86.2675 15.6151Z" fill="#00FF93" />
        <path d="M120.377 50.3711H92.2891V74.5494C92.2891 90.1243 104.868 102.757 120.377 102.757V50.3711Z" fill="#00B467" />
        <path d="M106.332 50.3711V72.192C106.332 89.0766 112.612 102.757 120.376 102.757V50.3711H106.332Z" fill="#1FD086" />
        <path d="M120.374 104.269C104.063 104.269 90.7812 90.9306 90.7812 74.5498V50.3715C90.7812 49.5454 91.4634 48.8604 92.286 48.8604H120.374C121.196 48.8604 121.878 49.5454 121.878 50.3715V102.758C121.878 103.584 121.196 104.269 120.374 104.269ZM93.7907 51.8826V74.5498C93.7907 88.7546 104.905 100.421 118.869 101.206V51.8826H93.7907Z" fill="#00FF93" />
        <path d="M95.4967 57.5439L86.2679 65.4824L77.0391 57.5439V42.3115H95.4967V57.5439Z" fill="#00B467" />
        <path d="M86.2687 66.994C85.9276 66.994 85.5665 66.8731 85.2856 66.6313L76.0568 58.6726C75.7157 58.3905 75.5352 57.9674 75.5352 57.5241V42.3119C75.5352 41.4858 76.2173 40.8008 77.0399 40.8008H95.4975C96.3201 40.8008 97.0022 41.4858 97.0022 42.3119V57.5241C97.0022 57.9674 96.8016 58.3905 96.4806 58.6726L87.2518 66.6313C86.9709 66.8731 86.6298 66.994 86.2687 66.994ZM78.5446 56.8391L86.2687 63.4881L93.9928 56.8391V43.8231H78.5446V56.8391Z" fill="#00FF93" />
        <path d="M67.208 61.4532C77.7343 61.4532 86.2676 52.8834 86.2676 42.3121C86.2676 31.7407 77.7343 23.1709 67.208 23.1709C56.6817 23.1709 48.1484 31.7407 48.1484 42.3121C48.1484 52.8834 56.6817 61.4532 67.208 61.4532Z" fill="#1FD086" />
        <path d="M48.1484 42.3121C48.1484 44.4881 48.5296 46.5634 49.1917 48.5178C52.1008 50.3111 55.5114 51.3789 59.1829 51.3789C69.7158 51.3789 78.2425 42.8158 78.2425 32.2378C78.2425 30.0617 77.8613 27.9864 77.1992 26.032C74.2901 24.2186 70.8795 23.1709 67.208 23.1709C56.6751 23.1709 48.1484 31.7341 48.1484 42.3121Z" fill="#00B467" />
        <path d="M67.2088 62.9648C55.8734 62.9648 46.6445 53.6964 46.6445 42.3125C46.6445 30.9285 55.8734 21.6602 67.2088 21.6602C78.5442 21.6602 87.7731 30.9285 87.7731 42.3125C87.7731 53.6964 78.5442 62.9648 67.2088 62.9648ZM67.2088 24.6824C57.5185 24.6824 49.6539 32.5807 49.6539 42.3125C49.6539 52.0442 57.5185 59.9425 67.2088 59.9425C76.8991 59.9425 84.7637 52.0442 84.7637 42.3125C84.7637 32.5807 76.8991 24.6824 67.2088 24.6824Z" fill="#00FF93" />
        <path d="M67.2094 49.3638C71.0876 49.3638 74.2314 46.2065 74.2314 42.3118C74.2314 38.4171 71.0876 35.2598 67.2094 35.2598C63.3313 35.2598 60.1875 38.4171 60.1875 42.3118C60.1875 46.2065 63.3313 49.3638 67.2094 49.3638Z" fill="#1FD086" />
        <path d="M60.1875 42.3118C60.1875 43.3797 60.4483 44.3871 60.8696 45.2938C60.9699 45.2938 61.0703 45.3341 61.1906 45.3341C65.0627 45.3341 68.2126 42.1707 68.2126 38.2821C68.2126 37.2142 67.9518 36.2068 67.5304 35.3001C67.4301 35.3001 67.3298 35.2598 67.2094 35.2598C63.3373 35.2598 60.1875 38.4231 60.1875 42.3118Z" fill="#00B467" />
        <path d="M67.2102 50.8753C62.5156 50.8753 58.6836 47.0269 58.6836 42.3122C58.6836 37.5974 62.5156 33.749 67.2102 33.749C71.9049 33.749 75.7369 37.5974 75.7369 42.3122C75.7369 47.0269 71.9049 50.8753 67.2102 50.8753ZM67.2102 36.7713C64.1607 36.7713 61.693 39.2496 61.693 42.3122C61.693 45.3748 64.1607 47.853 67.2102 47.853C70.2598 47.853 72.7275 45.3748 72.7275 42.3122C72.7275 39.2496 70.2598 36.7713 67.2102 36.7713Z" fill="#00FF93" />
        <path d="M105.325 61.4532C115.851 61.4532 124.385 52.8834 124.385 42.3121C124.385 31.7407 115.851 23.1709 105.325 23.1709C94.7989 23.1709 86.2656 31.7407 86.2656 42.3121C86.2656 52.8834 94.7989 61.4532 105.325 61.4532Z" fill="#1FD086" />
        <path d="M86.2656 42.3121C86.2656 44.4881 86.6468 46.5634 87.3089 48.5178C90.218 50.3111 93.6286 51.3789 97.3001 51.3789C107.833 51.3789 116.36 42.8158 116.36 32.2378C116.36 30.0617 115.978 27.9864 115.316 26.032C112.407 24.2186 108.997 23.1709 105.325 23.1709C94.7923 23.1709 86.2656 31.7341 86.2656 42.3121Z" fill="#00B467" />
        <path d="M105.33 62.9648C93.9945 62.9648 84.7656 53.6964 84.7656 42.3125C84.7656 30.9285 93.9945 21.6602 105.33 21.6602C116.665 21.6602 125.894 30.9285 125.894 42.3125C125.894 53.6964 116.665 62.9648 105.33 62.9648ZM105.33 24.6824C95.6396 24.6824 87.775 32.5807 87.775 42.3125C87.775 52.0442 95.6396 59.9425 105.33 59.9425C115.02 59.9425 122.885 52.0442 122.885 42.3125C122.885 32.5807 115.02 24.6824 105.33 24.6824Z" fill="#00FF93" />
        <path d="M105.327 49.3638C109.205 49.3638 112.349 46.2065 112.349 42.3118C112.349 38.4171 109.205 35.2598 105.327 35.2598C101.449 35.2598 98.3047 38.4171 98.3047 42.3118C98.3047 46.2065 101.449 49.3638 105.327 49.3638Z" fill="#1FD086" />
        <path d="M98.3047 42.3118C98.3047 43.3797 98.5655 44.3871 98.9868 45.2938C99.0871 45.2938 99.1874 45.3341 99.3078 45.3341C103.18 45.3341 106.33 42.1707 106.33 38.2821C106.33 37.2142 106.069 36.2068 105.648 35.3001C105.547 35.3001 105.447 35.2598 105.327 35.2598C101.455 35.2598 98.3047 38.4231 98.3047 42.3118Z" fill="#00B467" />
        <path d="M105.327 50.8753C100.633 50.8753 96.8008 47.0269 96.8008 42.3122C96.8008 37.5974 100.633 33.749 105.327 33.749C110.022 33.749 113.854 37.5974 113.854 42.3122C113.854 47.0269 110.022 50.8753 105.327 50.8753ZM105.327 36.7713C102.278 36.7713 99.8102 39.2496 99.8102 42.3122C99.8102 45.3748 102.278 47.853 105.327 47.853C108.377 47.853 110.845 45.3748 110.845 42.3122C110.845 39.2496 108.377 36.7713 105.327 36.7713Z" fill="#00FF93" />
        <path d="M63.197 24.6819C62.3744 24.6819 61.6923 23.9969 61.6923 23.1708C61.6923 19 58.3217 15.6151 54.1688 15.6151C53.3462 15.6151 52.6641 14.93 52.6641 14.1039C52.6641 13.2778 53.3462 12.5928 54.1688 12.5928C59.9669 12.5928 64.7017 17.3478 64.7017 23.1708C64.7017 23.9969 64.0195 24.6819 63.197 24.6819Z" fill="#00FF93" />
        <path d="M110.345 24.6819C109.522 24.6819 108.84 23.9969 108.84 23.1708C108.84 17.3478 113.575 12.5928 119.373 12.5928C120.195 12.5928 120.877 13.2778 120.877 14.1039C120.877 14.93 120.195 15.6151 119.373 15.6151C115.22 15.6151 111.849 19 111.849 23.1708C111.849 23.9969 111.167 24.6819 110.345 24.6819Z" fill="#00FF93" />
        <path d="M140.436 54.4012H132.411C131.588 54.4012 130.906 53.7161 130.906 52.8901C130.906 52.064 131.588 51.3789 132.411 51.3789H140.436C141.259 51.3789 141.941 52.064 141.941 52.8901C141.941 53.7161 141.259 54.4012 140.436 54.4012Z" fill="#00FF93" />
        <path d="M136.427 58.4304C135.604 58.4304 134.922 57.7453 134.922 56.9192V48.8598C134.922 48.0337 135.604 47.3486 136.427 47.3486C137.249 47.3486 137.931 48.0337 137.931 48.8598V56.9192C137.931 57.7453 137.249 58.4304 136.427 58.4304Z" fill="#00FF93" />
        <path d="M136.427 66.4901C137.258 66.4901 137.931 65.8135 137.931 64.9789C137.931 64.1443 137.258 63.4678 136.427 63.4678C135.596 63.4678 134.922 64.1443 134.922 64.9789C134.922 65.8135 135.596 66.4901 136.427 66.4901Z" fill="#00FF93" />
        <path d="M136.427 72.535C137.258 72.535 137.931 71.8584 137.931 71.0238C137.931 70.1893 137.258 69.5127 136.427 69.5127C135.596 69.5127 134.922 70.1893 134.922 71.0238C134.922 71.8584 135.596 72.535 136.427 72.535Z" fill="#00FF93" />
        <path d="M136.427 80.5946C137.258 80.5946 137.931 79.918 137.931 79.0834C137.931 78.2488 137.258 77.5723 136.427 77.5723C135.596 77.5723 134.922 78.2488 134.922 79.0834C134.922 79.918 135.596 80.5946 136.427 80.5946Z" fill="#00FF93" />
        <path d="M136.427 92.6834C137.258 92.6834 137.931 92.0069 137.931 91.1723C137.931 90.3377 137.258 89.6611 136.427 89.6611C135.596 89.6611 134.922 90.3377 134.922 91.1723C134.922 92.0069 135.596 92.6834 136.427 92.6834Z" fill="#00FF93" />
        <path d="M40.1235 59.9422H32.0985C31.2759 59.9422 30.5938 59.2572 30.5938 58.4311C30.5938 57.605 31.2759 56.9199 32.0985 56.9199H40.1235C40.9461 56.9199 41.6282 57.605 41.6282 58.4311C41.6282 59.2572 40.9461 59.9422 40.1235 59.9422Z" fill="#00FF93" />
        <path d="M36.1102 63.9714C35.2876 63.9714 34.6055 63.2863 34.6055 62.4602V54.4008C34.6055 53.5747 35.2876 52.8896 36.1102 52.8896C36.9327 52.8896 37.6149 53.5747 37.6149 54.4008V62.4602C37.6149 63.2863 36.9327 63.9714 36.1102 63.9714Z" fill="#00FF93" />
        <path d="M22.0688 45.8377H14.0438C13.2212 45.8377 12.5391 45.1527 12.5391 44.3266C12.5391 43.5005 13.2212 42.8154 14.0438 42.8154H22.0688C22.8914 42.8154 23.5735 43.5005 23.5735 44.3266C23.5735 45.1527 22.8914 45.8377 22.0688 45.8377Z" fill="#00FF93" />
        <path d="M18.0555 49.8679C17.2329 49.8679 16.5508 49.1828 16.5508 48.3567V40.2973C16.5508 39.4712 17.2329 38.7861 18.0555 38.7861C18.8781 38.7861 19.5602 39.4712 19.5602 40.2973V48.3567C19.5602 49.1828 18.8781 49.8679 18.0555 49.8679Z" fill="#00FF93" />
        <path d="M36.1118 21.66H28.0867C27.2642 21.66 26.582 20.9749 26.582 20.1488C26.582 19.3227 27.2642 18.6377 28.0867 18.6377H36.1118C36.9344 18.6377 37.6165 19.3227 37.6165 20.1488C37.6165 20.9749 36.9344 21.66 36.1118 21.66Z" fill="#00FF93" />
        <path d="M32.0985 25.6891C31.2759 25.6891 30.5938 25.0041 30.5938 24.178V16.1186C30.5938 15.2925 31.2759 14.6074 32.0985 14.6074C32.921 14.6074 33.6032 15.2925 33.6032 16.1186V24.178C33.6032 25.0041 32.921 25.6891 32.0985 25.6891Z" fill="#00FF93" />
        <path d="M134.436 25.6893H126.411C125.588 25.6893 124.906 25.0042 124.906 24.1781C124.906 23.352 125.588 22.667 126.411 22.667H134.436C135.259 22.667 135.941 23.352 135.941 24.1781C135.941 25.0042 135.259 25.6893 134.436 25.6893Z" fill="#00FF93" />
        <path d="M130.427 29.7194C129.604 29.7194 128.922 29.0344 128.922 28.2083V20.1488C128.922 19.3227 129.604 18.6377 130.427 18.6377C131.249 18.6377 131.931 19.3227 131.931 20.1488V28.2083C131.931 29.0344 131.249 29.7194 130.427 29.7194Z" fill="#00FF93" />
        <path d="M92.2863 132.98H60.186C59.0779 132.98 58.1797 133.883 58.1797 134.995V141.04C58.1797 142.153 59.0779 143.055 60.186 143.055H92.2863C93.3943 143.055 94.2925 142.153 94.2925 141.04V134.995C94.2925 133.883 93.3943 132.98 92.2863 132.98Z" fill="#00B467" />
        <path d="M92.2871 144.566H60.1868C58.2607 144.566 56.6758 142.975 56.6758 141.04V134.996C56.6758 133.061 58.2607 131.47 60.1868 131.47H92.2871C94.2131 131.47 95.798 133.061 95.798 134.996V141.04C95.798 142.975 94.2131 144.566 92.2871 144.566ZM60.1868 134.492C59.9059 134.492 59.6852 134.714 59.6852 134.996V141.04C59.6852 141.322 59.9059 141.544 60.1868 141.544H92.2871C92.5679 141.544 92.7886 141.322 92.7886 141.04V134.996C92.7886 134.714 92.5679 134.492 92.2871 134.492H60.1868Z" fill="#00FF93" />
        <path d="M69.2156 144.566C68.3931 144.566 67.7109 143.881 67.7109 143.055V132.981C67.7109 132.155 68.3931 131.47 69.2156 131.47C70.0382 131.47 70.7203 132.155 70.7203 132.981V143.055C70.7203 143.881 70.0382 144.566 69.2156 144.566Z" fill="#00FF93" />
        <path d="M83.2586 144.566C82.436 144.566 81.7539 143.881 81.7539 143.055V132.981C81.7539 132.155 82.436 131.47 83.2586 131.47C84.0812 131.47 84.7633 132.155 84.7633 132.981V143.055C84.7633 143.881 84.0812 144.566 83.2586 144.566Z" fill="#00FF93" />
        <path d="M94.2941 122.906H62.1938C61.0857 122.906 60.1875 123.808 60.1875 124.921V130.966C60.1875 132.078 61.0857 132.981 62.1938 132.981H94.2941C95.4021 132.981 96.3004 132.078 96.3004 130.966V124.921C96.3004 123.808 95.4021 122.906 94.2941 122.906Z" fill="#00B467" />
        <path d="M94.2949 134.492H62.1946C60.2685 134.492 58.6836 132.9 58.6836 130.966V124.922C58.6836 122.987 60.2685 121.396 62.1946 121.396H94.2949C96.2209 121.396 97.8058 122.987 97.8058 124.922V130.966C97.8058 132.9 96.2209 134.492 94.2949 134.492ZM62.1946 124.418C61.9137 124.418 61.693 124.639 61.693 124.922V130.966C61.693 131.248 61.9137 131.47 62.1946 131.47H94.2949C94.5758 131.47 94.7964 131.248 94.7964 130.966V124.922C94.7964 124.639 94.5758 124.418 94.2949 124.418H62.1946Z" fill="#00FF93" />
        <path d="M73.2274 134.492C72.4048 134.492 71.7227 133.807 71.7227 132.981V122.907C71.7227 122.081 72.4048 121.396 73.2274 121.396C74.0499 121.396 74.7321 122.081 74.7321 122.907V132.981C74.7321 133.807 74.0499 134.492 73.2274 134.492Z" fill="#00FF93" />
        <path d="M87.2703 134.492C86.4478 134.492 85.7656 133.807 85.7656 132.981V122.907C85.7656 122.081 86.4478 121.396 87.2703 121.396C88.0929 121.396 88.775 122.081 88.775 122.907V132.981C88.775 133.807 88.0929 134.492 87.2703 134.492Z" fill="#00FF93" />
        <path d="M94.2941 112.832H62.1938C61.0857 112.832 60.1875 113.734 60.1875 114.847V120.891C60.1875 122.004 61.0857 122.906 62.1938 122.906H94.2941C95.4021 122.906 96.3004 122.004 96.3004 120.891V114.847C96.3004 113.734 95.4021 112.832 94.2941 112.832Z" fill="#00B467" />
        <path d="M94.2949 124.418H62.1946C60.2685 124.418 58.6836 122.826 58.6836 120.892V114.847C58.6836 112.913 60.2685 111.321 62.1946 111.321H94.2949C96.2209 111.321 97.8058 112.913 97.8058 114.847V120.892C97.8058 122.826 96.2209 124.418 94.2949 124.418ZM62.1946 114.344C61.9137 114.344 61.693 114.565 61.693 114.847V120.892C61.693 121.174 61.9137 121.396 62.1946 121.396H94.2949C94.5758 121.396 94.7964 121.174 94.7964 120.892V114.847C94.7964 114.565 94.5758 114.344 94.2949 114.344H62.1946Z" fill="#00FF93" />
        <path d="M71.2195 124.417C70.397 124.417 69.7148 123.732 69.7148 122.906V112.831C69.7148 112.005 70.397 111.32 71.2195 111.32C72.0421 111.32 72.7242 112.005 72.7242 112.831V122.906C72.7242 123.732 72.0421 124.417 71.2195 124.417Z" fill="#00FF93" />
        <path d="M85.2625 124.417C84.4399 124.417 83.7578 123.732 83.7578 122.906V112.831C83.7578 112.005 84.4399 111.32 85.2625 111.32C86.0851 111.32 86.7672 112.005 86.7672 112.831V122.906C86.7672 123.732 86.0851 124.417 85.2625 124.417Z" fill="#00FF93" />
        <path d="M94.2941 102.758H62.1938C61.0857 102.758 60.1875 103.66 60.1875 104.773V110.817C60.1875 111.93 61.0857 112.832 62.1938 112.832H94.2941C95.4021 112.832 96.3004 111.93 96.3004 110.817V104.773C96.3004 103.66 95.4021 102.758 94.2941 102.758Z" fill="#00B467" />
        <path d="M94.2949 114.344H62.1946C60.2685 114.344 58.6836 112.752 58.6836 110.818V104.773C58.6836 102.839 60.2685 101.247 62.1946 101.247H94.2949C96.2209 101.247 97.8058 102.839 97.8058 104.773V110.818C97.8058 112.752 96.2209 114.344 94.2949 114.344ZM62.1946 104.269C61.9137 104.269 61.693 104.491 61.693 104.773V110.818C61.693 111.1 61.9137 111.321 62.1946 111.321H94.2949C94.5758 111.321 94.7964 111.1 94.7964 110.818V104.773C94.7964 104.491 94.5758 104.269 94.2949 104.269H62.1946Z" fill="#00FF93" />
        <path d="M73.2274 114.344C72.4048 114.344 71.7227 113.659 71.7227 112.833V102.758C71.7227 101.932 72.4048 101.247 73.2274 101.247C74.0499 101.247 74.7321 101.932 74.7321 102.758V112.833C74.7321 113.659 74.0499 114.344 73.2274 114.344Z" fill="#00FF93" />
        <path d="M87.2703 114.344C86.4478 114.344 85.7656 113.659 85.7656 112.833V102.758C85.7656 101.932 86.4478 101.247 87.2703 101.247C88.0929 101.247 88.775 101.932 88.775 102.758V112.833C88.775 113.659 88.0929 114.344 87.2703 114.344Z" fill="#00FF93" />
        <path d="M138.431 132.98H106.33C105.222 132.98 104.324 133.883 104.324 134.995V141.04C104.324 142.153 105.222 143.055 106.33 143.055H138.431C139.539 143.055 140.437 142.153 140.437 141.04V134.995C140.437 133.883 139.539 132.98 138.431 132.98Z" fill="#00B467" />
        <path d="M138.432 144.566H106.331C104.405 144.566 102.82 142.975 102.82 141.04V134.996C102.82 133.061 104.405 131.47 106.331 131.47H138.432C140.358 131.47 141.943 133.061 141.943 134.996V141.04C141.943 142.975 140.358 144.566 138.432 144.566ZM106.331 134.492C106.05 134.492 105.83 134.714 105.83 134.996V141.04C105.83 141.322 106.05 141.544 106.331 141.544H138.432C138.712 141.544 138.933 141.322 138.933 141.04V134.996C138.933 134.714 138.712 134.492 138.432 134.492H106.331Z" fill="#00FF93" />
        <path d="M115.36 144.566C114.538 144.566 113.855 143.881 113.855 143.055V132.981C113.855 132.155 114.538 131.47 115.36 131.47C116.183 131.47 116.865 132.155 116.865 132.981V143.055C116.865 143.881 116.183 144.566 115.36 144.566Z" fill="#00FF93" />
        <path d="M129.403 144.566C128.581 144.566 127.898 143.881 127.898 143.055V132.981C127.898 132.155 128.581 131.47 129.403 131.47C130.226 131.47 130.908 132.155 130.908 132.981V143.055C130.908 143.881 130.226 144.566 129.403 144.566Z" fill="#00FF93" />
        <path d="M138.431 122.906H106.33C105.222 122.906 104.324 123.808 104.324 124.921V130.966C104.324 132.078 105.222 132.981 106.33 132.981H138.431C139.539 132.981 140.437 132.078 140.437 130.966V124.921C140.437 123.808 139.539 122.906 138.431 122.906Z" fill="#00B467" />
        <path d="M138.432 134.492H106.331C104.405 134.492 102.82 132.9 102.82 130.966V124.922C102.82 122.987 104.405 121.396 106.331 121.396H138.432C140.358 121.396 141.943 122.987 141.943 124.922V130.966C141.943 132.9 140.358 134.492 138.432 134.492ZM106.331 124.418C106.05 124.418 105.83 124.639 105.83 124.922V130.966C105.83 131.248 106.05 131.47 106.331 131.47H138.432C138.712 131.47 138.933 131.248 138.933 130.966V124.922C138.933 124.639 138.712 124.418 138.432 124.418H106.331Z" fill="#00FF93" />
        <path d="M117.364 134.492C116.542 134.492 115.859 133.807 115.859 132.981V122.907C115.859 122.081 116.542 121.396 117.364 121.396C118.187 121.396 118.869 122.081 118.869 122.907V132.981C118.869 133.807 118.187 134.492 117.364 134.492Z" fill="#00FF93" />
        <path d="M131.407 134.492C130.584 134.492 129.902 133.807 129.902 132.981V122.907C129.902 122.081 130.584 121.396 131.407 121.396C132.23 121.396 132.912 122.081 132.912 122.907V132.981C132.912 133.807 132.23 134.492 131.407 134.492Z" fill="#00FF93" />
        <path d="M138.431 112.832H106.33C105.222 112.832 104.324 113.734 104.324 114.847V120.891C104.324 122.004 105.222 122.906 106.33 122.906H138.431C139.539 122.906 140.437 122.004 140.437 120.891V114.847C140.437 113.734 139.539 112.832 138.431 112.832Z" fill="#00B467" />
        <path d="M138.432 124.417H106.331C104.405 124.417 102.82 122.825 102.82 120.891V114.846C102.82 112.912 104.405 111.32 106.331 111.32H138.432C140.358 111.32 141.943 112.912 141.943 114.846V120.891C141.943 122.825 140.358 124.417 138.432 124.417ZM106.331 114.343C106.05 114.343 105.83 114.564 105.83 114.846V120.891C105.83 121.173 106.05 121.395 106.331 121.395H138.432C138.712 121.395 138.933 121.173 138.933 120.891V114.846C138.933 114.564 138.712 114.343 138.432 114.343H106.331Z" fill="#00FF93" />
        <path d="M115.36 124.417C114.538 124.417 113.855 123.732 113.855 122.906V112.831C113.855 112.005 114.538 111.32 115.36 111.32C116.183 111.32 116.865 112.005 116.865 112.831V122.906C116.865 123.732 116.183 124.417 115.36 124.417Z" fill="#00FF93" />
        <path d="M129.403 124.417C128.581 124.417 127.898 123.732 127.898 122.906V112.831C127.898 112.005 128.581 111.32 129.403 111.32C130.226 111.32 130.908 112.005 130.908 112.831V122.906C130.908 123.732 130.226 124.417 129.403 124.417Z" fill="#00FF93" />
        <path d="M138.431 102.758H106.33C105.222 102.758 104.324 103.66 104.324 104.773V110.817C104.324 111.93 105.222 112.832 106.33 112.832H138.431C139.539 112.832 140.437 111.93 140.437 110.817V104.773C140.437 103.66 139.539 102.758 138.431 102.758Z" fill="#00B467" />
        <path d="M138.432 114.343H106.331C104.405 114.343 102.82 112.751 102.82 110.817V104.772C102.82 102.838 104.405 101.246 106.331 101.246H138.432C140.358 101.246 141.943 102.838 141.943 104.772V110.817C141.943 112.751 140.358 114.343 138.432 114.343ZM106.331 104.268C106.05 104.268 105.83 104.49 105.83 104.772V110.817C105.83 111.099 106.05 111.32 106.331 111.32H138.432C138.712 111.32 138.933 111.099 138.933 110.817V104.772C138.933 104.49 138.712 104.268 138.432 104.268H106.331Z" fill="#00FF93" />
        <path d="M117.364 114.344C116.542 114.344 115.859 113.659 115.859 112.833V102.758C115.859 101.932 116.542 101.247 117.364 101.247C118.187 101.247 118.869 101.932 118.869 102.758V112.833C118.869 113.659 118.187 114.344 117.364 114.344Z" fill="#00FF93" />
        <path d="M131.407 114.344C130.584 114.344 129.902 113.659 129.902 112.833V102.758C129.902 101.932 130.584 101.247 131.407 101.247C132.23 101.247 132.912 101.932 132.912 102.758V112.833C132.912 113.659 132.23 114.344 131.407 114.344Z" fill="#00FF93" />
        <path d="M46.1417 132.98H14.0414C12.9334 132.98 12.0352 133.883 12.0352 134.995V141.04C12.0352 142.153 12.9334 143.055 14.0414 143.055H46.1417C47.2498 143.055 48.148 142.153 48.148 141.04V134.995C48.148 133.883 47.2498 132.98 46.1417 132.98Z" fill="#00B467" />
        <path d="M46.1425 144.566H14.0422C12.1162 144.566 10.5312 142.975 10.5312 141.04V134.996C10.5312 133.061 12.1162 131.47 14.0422 131.47H46.1425C48.0686 131.47 49.6535 133.061 49.6535 134.996V141.04C49.6535 142.975 48.0686 144.566 46.1425 144.566ZM14.0422 134.492C13.7613 134.492 13.5407 134.714 13.5407 134.996V141.04C13.5407 141.322 13.7613 141.544 14.0422 141.544H46.1425C46.4234 141.544 46.6441 141.322 46.6441 141.04V134.996C46.6441 134.714 46.4234 134.492 46.1425 134.492H14.0422Z" fill="#00FF93" />
        <path d="M50.1535 122.906H18.0531C16.9451 122.906 16.0469 123.808 16.0469 124.921V130.966C16.0469 132.078 16.9451 132.981 18.0531 132.981H50.1535C51.2615 132.981 52.1597 132.078 52.1597 130.966V124.921C52.1597 123.808 51.2615 122.906 50.1535 122.906Z" fill="#00B467" />
        <path d="M50.1543 134.492H18.0539C16.1279 134.492 14.543 132.9 14.543 130.966V124.922C14.543 122.987 16.1279 121.396 18.0539 121.396H50.1543C52.0803 121.396 53.6652 122.987 53.6652 124.922V130.966C53.6652 132.9 52.0803 134.492 50.1543 134.492ZM18.0539 124.418C17.7731 124.418 17.5524 124.639 17.5524 124.922V130.966C17.5524 131.248 17.7731 131.47 18.0539 131.47H50.1543C50.4351 131.47 50.6558 131.248 50.6558 130.966V124.922C50.6558 124.639 50.4351 124.418 50.1543 124.418H18.0539Z" fill="#00FF93" />
        <path d="M48.1496 112.832H16.0492C14.9412 112.832 14.043 113.734 14.043 114.847V120.891C14.043 122.004 14.9412 122.906 16.0492 122.906H48.1496C49.2576 122.906 50.1558 122.004 50.1558 120.891V114.847C50.1558 113.734 49.2576 112.832 48.1496 112.832Z" fill="#00B467" />
        <path d="M48.1503 124.417H16.05C14.124 124.417 12.5391 122.825 12.5391 120.891V114.846C12.5391 112.912 14.124 111.32 16.05 111.32H48.1503C50.0764 111.32 51.6613 112.912 51.6613 114.846V120.891C51.6613 122.825 50.0764 124.417 48.1503 124.417ZM16.05 114.343C15.7692 114.343 15.5485 114.564 15.5485 114.846V120.891C15.5485 121.173 15.7692 121.395 16.05 121.395H48.1503C48.4312 121.395 48.6519 121.173 48.6519 120.891V114.846C48.6519 114.564 48.4312 114.343 48.1503 114.343H16.05Z" fill="#00FF93" />
        <path d="M46.1417 102.758H14.0414C12.9334 102.758 12.0352 103.66 12.0352 104.773V110.817C12.0352 111.93 12.9334 112.832 14.0414 112.832H46.1417C47.2498 112.832 48.148 111.93 48.148 110.817V104.773C48.148 103.66 47.2498 102.758 46.1417 102.758Z" fill="#00B467" />
        <path d="M46.1425 114.344H14.0422C12.1162 114.344 10.5312 112.752 10.5312 110.818V104.773C10.5312 102.839 12.1162 101.247 14.0422 101.247H46.1425C48.0686 101.247 49.6535 102.839 49.6535 104.773V110.818C49.6535 112.752 48.0686 114.344 46.1425 114.344ZM14.0422 104.269C13.7613 104.269 13.5407 104.491 13.5407 104.773V110.818C13.5407 111.1 13.7613 111.321 14.0422 111.321H46.1425C46.4234 111.321 46.6441 111.1 46.6441 110.818V104.773C46.6441 104.491 46.4234 104.269 46.1425 104.269H14.0422Z" fill="#00FF93" />
        <path d="M50.1535 92.6836H18.0531C16.9451 92.6836 16.0469 93.5857 16.0469 94.6985V100.743C16.0469 101.856 16.9451 102.758 18.0531 102.758H50.1535C51.2615 102.758 52.1597 101.856 52.1597 100.743V94.6985C52.1597 93.5857 51.2615 92.6836 50.1535 92.6836Z" fill="#00B467" />
        <path d="M50.1543 104.268H18.0539C16.1279 104.268 14.543 102.677 14.543 100.742V94.6979C14.543 92.7636 16.1279 91.1719 18.0539 91.1719H50.1543C52.0803 91.1719 53.6652 92.7636 53.6652 94.6979V100.742C53.6652 102.677 52.0803 104.268 50.1543 104.268ZM18.0539 94.1942C17.7731 94.1942 17.5524 94.4158 17.5524 94.6979V100.742C17.5524 101.025 17.7731 101.246 18.0539 101.246H50.1543C50.4351 101.246 50.6558 101.025 50.6558 100.742V94.6979C50.6558 94.4158 50.4351 94.1942 50.1543 94.1942H18.0539Z" fill="#00FF93" />
        <path d="M48.1496 82.6094H16.0492C14.9412 82.6094 14.043 83.5115 14.043 84.6242V90.6688C14.043 91.7816 14.9412 92.6837 16.0492 92.6837H48.1496C49.2576 92.6837 50.1558 91.7816 50.1558 90.6688V84.6242C50.1558 83.5115 49.2576 82.6094 48.1496 82.6094Z" fill="#00B467" />
        <path d="M48.1503 94.1942H16.05C14.124 94.1942 12.5391 92.6025 12.5391 90.6682V84.6237C12.5391 82.6894 14.124 81.0977 16.05 81.0977H48.1503C50.0764 81.0977 51.6613 82.6894 51.6613 84.6237V90.6682C51.6613 92.6025 50.0764 94.1942 48.1503 94.1942ZM16.05 84.1199C15.7692 84.1199 15.5485 84.3416 15.5485 84.6237V90.6682C15.5485 90.9503 15.7692 91.172 16.05 91.172H48.1503C48.4312 91.172 48.6519 90.9503 48.6519 90.6682V84.6237C48.6519 84.3416 48.4312 84.1199 48.1503 84.1199H16.05Z" fill="#00FF93" />
        <path d="M46.1417 72.5352H14.0414C12.9334 72.5352 12.0352 73.4372 12.0352 74.55V80.5946C12.0352 81.7074 12.9334 82.6095 14.0414 82.6095H46.1417C47.2498 82.6095 48.148 81.7074 48.148 80.5946V74.55C48.148 73.4372 47.2498 72.5352 46.1417 72.5352Z" fill="#00B467" />
        <path d="M46.1425 84.12H14.0422C12.1162 84.12 10.5312 82.5283 10.5312 80.594V74.5494C10.5312 72.6152 12.1162 71.0234 14.0422 71.0234H46.1425C48.0686 71.0234 49.6535 72.6152 49.6535 74.5494V80.594C49.6535 82.5283 48.0686 84.12 46.1425 84.12ZM14.0422 74.0457C13.7613 74.0457 13.5407 74.2674 13.5407 74.5494V80.594C13.5407 80.8761 13.7613 81.0977 14.0422 81.0977H46.1425C46.4234 81.0977 46.6441 80.8761 46.6441 80.594V74.5494C46.6441 74.2674 46.4234 74.0457 46.1425 74.0457H14.0422Z" fill="#00FF93" />
        <path d="M23.0711 144.566C22.2485 144.566 21.5664 143.881 21.5664 143.055V132.981C21.5664 132.155 22.2485 131.47 23.0711 131.47C23.8937 131.47 24.5758 132.155 24.5758 132.981V143.055C24.5758 143.881 23.8937 144.566 23.0711 144.566Z" fill="#00FF93" />
        <path d="M37.1141 144.566C36.2915 144.566 35.6094 143.881 35.6094 143.055V132.981C35.6094 132.155 36.2915 131.47 37.1141 131.47C37.9366 131.47 38.6188 132.155 38.6188 132.981V143.055C38.6188 143.881 37.9366 144.566 37.1141 144.566Z" fill="#00FF93" />
        <path d="M27.0828 134.492C26.2603 134.492 25.5781 133.807 25.5781 132.981V122.907C25.5781 122.081 26.2603 121.396 27.0828 121.396C27.9054 121.396 28.5875 122.081 28.5875 122.907V132.981C28.5875 133.807 27.9054 134.492 27.0828 134.492Z" fill="#00FF93" />
        <path d="M41.1258 134.492C40.3032 134.492 39.6211 133.807 39.6211 132.981V122.907C39.6211 122.081 40.3032 121.396 41.1258 121.396C41.9484 121.396 42.6305 122.081 42.6305 122.907V132.981C42.6305 133.807 41.9484 134.492 41.1258 134.492Z" fill="#00FF93" />
        <path d="M23.0711 124.417C22.2485 124.417 21.5664 123.732 21.5664 122.906V112.831C21.5664 112.005 22.2485 111.32 23.0711 111.32C23.8937 111.32 24.5758 112.005 24.5758 112.831V122.906C24.5758 123.732 23.8937 124.417 23.0711 124.417Z" fill="#00FF93" />
        <path d="M37.1141 124.417C36.2915 124.417 35.6094 123.732 35.6094 122.906V112.831C35.6094 112.005 36.2915 111.32 37.1141 111.32C37.9366 111.32 38.6188 112.005 38.6188 112.831V122.906C38.6188 123.732 37.9366 124.417 37.1141 124.417Z" fill="#00FF93" />
        <path d="M25.075 114.343C24.2524 114.343 23.5703 113.658 23.5703 112.832V102.757C23.5703 101.931 24.2524 101.246 25.075 101.246C25.8976 101.246 26.5797 101.931 26.5797 102.757V112.832C26.5797 113.658 25.8976 114.343 25.075 114.343Z" fill="#00FF93" />
        <path d="M39.1219 114.343C38.2993 114.343 37.6172 113.658 37.6172 112.832V102.757C37.6172 101.931 38.2993 101.246 39.1219 101.246C39.9445 101.246 40.6266 101.931 40.6266 102.757V112.832C40.6266 113.658 39.9445 114.343 39.1219 114.343Z" fill="#00FF93" />
        <path d="M27.0828 104.268C26.2603 104.268 25.5781 103.583 25.5781 102.757V92.683C25.5781 91.8569 26.2603 91.1719 27.0828 91.1719C27.9054 91.1719 28.5875 91.8569 28.5875 92.683V102.757C28.5875 103.583 27.9054 104.268 27.0828 104.268Z" fill="#00FF93" />
        <path d="M41.1258 104.268C40.3032 104.268 39.6211 103.583 39.6211 102.757V92.683C39.6211 91.8569 40.3032 91.1719 41.1258 91.1719C41.9484 91.1719 42.6305 91.8569 42.6305 92.683V102.757C42.6305 103.583 41.9484 104.268 41.1258 104.268Z" fill="#00FF93" />
        <path d="M25.075 94.1942C24.2524 94.1942 23.5703 93.5092 23.5703 92.6831V82.6088C23.5703 81.7827 24.2524 81.0977 25.075 81.0977C25.8976 81.0977 26.5797 81.7827 26.5797 82.6088V92.6831C26.5797 93.5092 25.8976 94.1942 25.075 94.1942Z" fill="#00FF93" />
        <path d="M39.1219 94.1942C38.2993 94.1942 37.6172 93.5092 37.6172 92.6831V82.6088C37.6172 81.7827 38.2993 81.0977 39.1219 81.0977C39.9445 81.0977 40.6266 81.7827 40.6266 82.6088V92.6831C40.6266 93.5092 39.9445 94.1942 39.1219 94.1942Z" fill="#00FF93" />
        <path d="M21.0633 84.12C20.2407 84.12 19.5586 83.435 19.5586 82.6089V72.5346C19.5586 71.7085 20.2407 71.0234 21.0633 71.0234C21.8859 71.0234 22.568 71.7085 22.568 72.5346V82.6089C22.568 83.435 21.8859 84.12 21.0633 84.12Z" fill="#00FF93" />
        <path d="M35.1063 84.12C34.2837 84.12 33.6016 83.435 33.6016 82.6089V72.5346C33.6016 71.7085 34.2837 71.0234 35.1063 71.0234C35.9288 71.0234 36.611 71.7085 36.611 72.5346V82.6089C36.611 83.435 35.9288 84.12 35.1063 84.12Z" fill="#00FF93" />
    </g>
    <defs>
        <clipPath id="clip0_745_15320_owl">
            <rect width="160" height="160" fill="white" />
        </clipPath>
    </defs>
</svg>
