<svg width="18" height="19" viewBox="0 0 18 19" fill="none" xmlns="http://www.w3.org/2000/svg">
  <path d="M11.2458 9.5C11.2458 10.7426 10.2384 11.75 8.99579 11.75C7.75315 11.75 6.74579 10.7426 6.74579 9.5C6.74579 8.25736 7.75315 7.25 8.99579 7.25C10.2384 7.25 11.2458 8.25736 11.2458 9.5Z" stroke="black" stroke-width="1.71429"/>
  <path d="M7.82839 2.75L7.47962 4.88671C6.83253 5.09728 6.24505 5.439 5.74886 5.8803L3.7338 5.11399L2.56641 7.13597L4.22592 8.49284C4.15702 8.81776 4.12078 9.15466 4.12078 9.49999C4.12078 9.84532 4.15702 10.1822 4.22591 10.5071L2.56641 11.864L3.7338 13.886L5.75176 13.1223C6.24733 13.5623 6.83379 13.9031 7.47962 14.1133L7.82839 16.25H10.1632L10.512 14.1133C11.159 13.9027 11.7465 13.561 12.2427 13.1197L14.2578 13.886L15.4252 11.864L13.7657 10.5072C13.8346 10.1822 13.8708 9.84534 13.8708 9.50001C13.8708 9.15468 13.8346 8.81778 13.7657 8.49287L15.4252 7.13601L14.2578 5.11403L12.2398 5.87774C11.7442 5.43767 11.1578 5.09687 10.512 4.88671L10.1632 2.75H7.82839Z" stroke="black" stroke-width="1.71429"/>


</svg>
